<?xml version="1.0" encoding="utf-8"?>
<svg version="1.1" xmlns:xlink="http://www.w3.org/1999/xlink" width="50px" height="50px" xmlns="http://www.w3.org/2000/svg">
  <g>
    <path d="M 0 25  C 0 11.1928571289062  11.1928571289062 0  25 0  C 38.8071428710937 0  50 11.1928571289062  50 25  C 50 38.8071428710937  38.8071428710937 50  25 50  C 11.1928571289063 50  0 38.8071428710938  0 25  Z M 32 17.615476171875  C 32.1428571289063 16.4738095214844  31.1428571289062 15.4761904785156  30 15.4761904785156  C 28.8571428710938 15.4761904785156  27.8559523925781 16.4738095214844  27 17.615476171875  L 27 33.3035714355469  C 27.8559523925781 34.4440476074219  28.8559523925781 35.4416666503906  29.9988095214844 35.4416666503906  C 31.1416666503906 35.4416666503906  32.1428571289063 34.4440476074219  32 33.3035714355469  L 32 17.615476171875  Z M 20.0011904785156 15.4761904785156  L 20 15.4761904785156  C 18.8571428710938 15.4761904785156  17.8571428710938 16.4738095214844  18 17.615476171875  L 18 33.3035714355469  C 17.8571428710938 34.4440476074219  18.8571428710938 35.4416666503906  20 35.4416666503906  C 21.1428571289062 35.4416666503906  22.1440476074219 34.4440476074219  23 33.3035714355469  L 23 17.615476171875  C 22.1428571289063 16.4738095214844  21.1428571289063 15.4761904785156  20.0011904785156 15.4761904785156  Z " fill-rule="nonzero" fill="#ffffff" stroke="none" />
  </g>
</svg>