<?xml version="1.0" encoding="utf-8"?>
<svg version="1.1" xmlns:xlink="http://www.w3.org/1999/xlink" width="15px" height="15px" xmlns="http://www.w3.org/2000/svg">
  <g transform="matrix(1 0 0 1 -2223 -496 )">
    <path d="M 14.9918056371595 4.59864344357977  C 14.9462378404669 4.24195758268483  14.6673314883268 4.0329742266537  14.3672125389105 4.04004509241245  L 12.0039722422179 4.03140291828794  L 14.6555467120623 1.39554148832685  C 14.9454521789883 1.10249340466926  14.9454521789883 0.627959781128405  14.6555467120623 0.335697358949416  C 14.3640699367704 0.0434349221789882  13.8926789153697 0.0434349221789882  13.6027734338521 0.335697358949416  L 10.9252724562257 2.99905660505837  L 10.9433424513619 0.588677203307393  C 10.9504133171206 0.286201298638132  10.7115752042802 0.0230079863813227  10.4106706079767 0.0300788521400777  L 10.0296295330739 0.0300788521400777  C 9.72872493677043 0.0379353647859921  9.47967334143969 0.217849610894941  9.47338813715953 0.520325515564202  L 9.45767509727627 4.70234948929961  C 9.45767509727627 4.70784904669261  9.47731638618677 4.71177731031128  9.47731638618677 4.71727686770428  L 9.44824727626459 4.99146930933852  C 9.44589032101167 5.14231441634241  9.48124464980545 5.27823215953307  9.57866546206226 5.37486732490272  C 9.67451496595331 5.47307378404669  9.80964706225681 5.53199766536965  9.95970653696498 5.52806940175097  L 10.2315420233463 5.52256984435798  C 10.2378272422179 5.52256984435798  10.2417554912451 5.52021288910506  10.2472550632296 5.5194272422179  L 14.4347785797665 5.54299678015564  C 14.73568317607 5.53592591439689  14.9839491099222 5.28608867217899  14.9918056371595 4.98282712062257  L 14.9918056371595 4.59864344357977  Z M 14.341286016537 10.9498517363813  C 14.639833672179 10.9577082636187  14.9179543774319 10.7722944601167  14.9635221741245 10.4156085992218  L 14.9627365272374 10.031424922179  C 14.9556656614786 9.72816337062257  14.7081853745136 9.47832612840467  14.4088520865759 9.47125526264591  L 10.2433267996109 9.49403916828794  C 10.2370415807393 9.49403916828794  10.2331133317121 9.49168221303502  10.2276137597276 9.49168221303502  L 9.95656392023346 9.48539699416342  C 9.80729009241245 9.48068308365759  9.67294365758755 9.54039261186771  9.5770941536965 9.63781342412451  C 9.48045898832685 9.73523423638132  9.44510467412452 9.87115197957199  9.44824727626459 10.0227827480545  L 9.47731638618677 10.2969751896887  C 9.47731638618677 10.3024747470817  9.45767509727627 10.3064030107004  9.45767509727627 10.3119025680934  L 9.47338813715953 14.4617148151751  C 9.47967335603113 14.7641907198444  9.72715362840467 14.9441049513619  10.027272577821 14.9511758171206  L 10.4310975437743 14.9519614640078  C 10.7304308463035 14.9590323297665  10.9676976507782 14.6950533560311  10.9606267850195 14.3925774513619  L 10.9433424513619 12.030908463035  L 13.6098442996109 14.6777690223735  C 13.8981784727626 14.970031459144  14.3679981857977 14.970031459144  14.6571180058366 14.6777690223735  C 14.9462378258755 14.3855065856031  14.9462378258755 13.9109729620623  14.6571180058366 13.6179248929961  L 11.9937587597276 10.9584939105058  L 14.341286016537 10.9498517363813  Z M 5.51606054474708 10.0227827188716  C 5.51763185311284 9.87193762645914  5.48227752431907 9.73601988326848  5.38485671206226 9.63859907101167  C 5.28900720817121 9.54117825875487  5.1538751118677 9.48146873054475  5.00381563715953 9.48618264105058  L 4.73119450389105 9.49246785992218  C 4.72648059338521 9.49246785992218  4.72176668287938 9.4948248151751  4.71626712548638 9.4948248151751  L 0.584524858949416 9.47125526264591  C 0.284405909533074 9.47832612840467  0.0353543287937743 9.72816337062257  0.0282834630350195 10.031424922179  L 0.02749781614786 10.4156085992218  C 0.073065612840467 10.7722944747082  0.351971964980545 10.9569226167315  0.652090914396887 10.9514230593385  L 2.98233383754864 10.960065233463  L 0.308761108949416 13.6187105544747  C 0.0180699951361868 13.9117586381323  0.0180699951361868 14.3862922616732  0.308761108949416 14.6785546838521  C 0.599452222762646 14.9708171060311  1.07005759727626 14.9708171206226  1.36074872568093 14.6785546838521  L 4.03824970330739 12.0159810846304  L 4.02017970817121 14.3635083414397  C 4.01310884241245 14.665984246109  4.25194695525292 14.9291775583658  4.55206590466926 14.922106692607  L 4.93389262645914 14.922106692607  C 5.23479722276265 14.9142501799611  5.48384881809339 14.7351215953307  5.49013402237354 14.4318600291829  L 5.50584706225681 10.3119025389105  C 5.50584706225681 10.3064029815175  5.4862057733463 10.3024747178988  5.4862057733463 10.2969751605058  L 5.51606054474708 10.0227827188716  Z M 5.48463447957198 4.71649120622568  C 5.48463447957198 4.71099163424125  5.50506142996109 4.70784903210117  5.50506142996109 4.70234947470817  L 5.48934839007782 0.520325500972762  C 5.48384883268483 0.217849596303502  5.23558289883268 0.0371497033073929  4.9362495963035 0.0292931906614785  L 4.53242463035019 0.0292931906614785  C 4.23309132782101 0.0230079863813229  3.9958245233463 0.286201298638132  4.00289538910506 0.587891541828794  L 4.02096538424125 2.98177225680934  L 1.35524916828794 0.335697358949416  C 1.06534370136187 0.0434349221789882  0.596309635214008 0.0434349221789882  0.307189815175097 0.335697358949416  C 0.0180699951361868 0.627959795719844  0.0180699951361868 1.10249340466926  0.307189815175097 1.39554148832685  L 2.94697950875486 4.03140291828794  L 0.62145049610895 4.04004509241245  C 0.322902840466926 4.0329742266537  0.045567796692607 4.24195758268483  0 4.59864344357977  L 0.000785646887159533 4.98282712062257  C 0.0078565126459144 5.28608868677043  0.255336799610895 5.53592591439689  0.554670102140078 5.54299678015564  L 4.72019538910506 5.51942722762646  C 4.72569494649805 5.52021287451362  4.72962321011673 5.52256982976654  4.73512276750973 5.52256982976654  L 5.00617260700389 5.52885504863813  C 5.1554464348249 5.53278331225681  5.29057851653697 5.47385943093385  5.38564237354086 5.37565297178988  C 5.48227752431907 5.27823215953307  5.51763185311284 5.14231441634241  5.51448925097276 4.99068364785992  L 5.48463447957198 4.71649120622568  Z " fill-rule="nonzero" fill="#ffffff" stroke="none" transform="matrix(1 0 0 1 2223 496 )" />
  </g>
</svg>