<?xml version="1.0" encoding="utf-8"?>
<svg version="1.1" xmlns:xlink="http://www.w3.org/1999/xlink" width="20px" height="20px" xmlns="http://www.w3.org/2000/svg">
  <g transform="matrix(1 0 0 1 -869 -384 )">
    <path d="M 4.95245642578125 19.2612458789063  C 4.49313348569649 19.7194183929464  3.87014555325943 19.9756331508524  3.221382421875 19.973180546875  C 2.57346335377175 19.9749841519953  1.95147252646112 19.7188186728868  1.4927465625 19.2612458789063  L 0.74058271484375 18.5103011132812  C 0.281566809533771 18.0516370854588  0.0236647582907172 17.4293439330205  0.0236647582907172 16.7804461816406  C 0.0236647582907172 16.1315484302608  0.28156680953377 15.5092552778224  0.74058271484375 15.05059125  L 15.04876265625 0.71681091796875  C 16.0043377425927 -0.236922239043628  17.5516783511573 -0.236922239043627  18.5072534375 0.71681091796875  L 19.2606363476563 1.46287943359375  C 20.2145096527889 2.41887243061194  20.2145096527889 3.96659629985681  19.2606363476563 4.922589296875  L 4.95245642578125 19.2612458789063  Z M 1.600024375 17.6447641015625  L 2.35462634765625 18.3969279492188  C 2.83387822131748 18.8754315541184  3.61010568493252 18.8754315541184  4.08935755859375 18.3969279492188  L 18.399975625 4.06314763671875  C 18.8784792298997 3.58389576305752  18.8784792298997 2.80766829944248  18.399975625 2.32841642578125  L 17.6478117773437 1.57625259765625  C 17.1678651770228 1.09827862534242  16.3918081237585 1.09827862534242  15.9118615234375 1.57625259765625  L 1.600024375 15.9100329101562  C 1.12152078310083 16.3892847815716  1.12152078310083 17.1655122301472  1.600024375 17.6447641015625  Z " fill-rule="nonzero" fill="#ffffff" stroke="none" transform="matrix(1 0 0 1 869 384 )" />
  </g>
</svg>