<?xml version="1.0" encoding="utf-8"?>
<svg version="1.1" xmlns:xlink="http://www.w3.org/1999/xlink" width="18px" height="20px" xmlns="http://www.w3.org/2000/svg">
  <g transform="matrix(1 0 0 1 -354 -740 )">
    <path d="M 15.8521276595745 13.7183544303797  C 15.7267858860228 13.6291955789561  15.6524529304653 13.4856107136376  15.6524529304653 13.3326537829132  C 15.6524529304653 13.0704933003986  15.8667846991633 12.8579702386094  16.1311763347206 12.8579702386094  C 16.1520568116142 12.8579702386094  16.1729149199771 12.8593248241818  16.1936170212766 12.8620253164557  L 16.23 12.8664556962025  C 16.7151063829787 11.6398734177215  16.9959574468085 10.2987341772152  16.9895744680851 8.91518987341772  C 16.9895744680851 8.81772151898734  16.9882978723404 8.72025316455696  16.9844680851064 8.62341772151899  C 16.8866572240694 8.72582859669246  16.7478877216271 8.7796613805289  16.6059574468085 8.77025316455696  C 16.2533676631641 8.74777956342547  15.9007640850094 8.81396070803449  15.5808510638298 8.9626582278481  C 15.5149694582641 8.99489060122092  15.442490262424 9.01165585013879  15.3690255025689 9.01165585013879  C 15.1046338670117 9.01165585013879  14.8903020983136 8.79913278834961  14.8903020983136 8.53697230583499  C 14.8903020983136 8.35102662578128  14.9997958154624 8.18220346492991  15.1704255319149 8.10506329113924  C 15.6374675345175 7.88622497515846  16.153068009434 7.78907233793596  16.6685106382979 7.82278481012658  C 16.7674468085106 7.82911392405063  16.8574468085106 7.86518987341772  16.9302127659575 7.92151898734177  C 16.4495744680851 3.9379746835443  13.1048936170213 1.0126582278481  8.98978723404255 1.0126582278481  C 4.87978723404255 1.0126582278481  1.53829787234043 3.92974683544304  1.05063829787234 7.90632911392405  C 1.35689189650246 7.83148480939087  1.67285313839848 7.80331387812121  1.98765957446808 7.82278481012658  C 2.2394064987176 7.83912616136765  2.43517159130357 8.04636219431146  2.43517159130357 8.29651898734177  C 2.43517159130357 8.55871517950784  2.22081062784407 8.77126718968919  1.9563829787234 8.77126718968919  C 1.94594908882369 8.77126718968919  1.9355179869034 8.77092900072546  1.92510638297872 8.77025316455696  C 1.60549001926087 8.74981915851134  1.28539797140315 8.80221246375846  0.98936170212766 8.92341772151899  C 0.984255319148936 10.3177215189873  1.26446808510638 11.6575949367089  1.74829787234043 12.8791139240506  L 1.76744680851064 12.8791139240506  C 2.03068476538508 12.8807187381181  2.24322692214339 13.0927670237157  2.24322692214339 13.3537884966438  C 2.24322692214339 13.4783496919589  2.19384945361441 13.5979197880474  2.10574468085106 13.6867088607595  C 1.97602788568554 13.4228761411635  1.85678746988159 13.1541045423854  1.74829787234043 12.8810126582278  C 1.76125426686907 12.8800739402925  1.77424346135134 12.8796516589473  1.78723404255319 12.879746835443  C 2.14404255319149 12.879746835443  2.4868085106383 12.7911392405063  2.79127659574468 12.623417721519  C 2.86150592310945 12.5855119357266  2.94019214436155 12.5656525538283  3.02015193480876 12.5656525538283  C 3.28454357036606 12.5656525538283  3.49887533906408 12.7781756156175  3.49887533906408 13.0403360981321  C 3.49887533906408 13.2116361718486  3.40579568895954 13.3696483318016  3.25531914893617 13.4537974683544  C 2.91777440958948 13.6392595590931  2.54745155528704 13.7587223785255  2.16446808510638 13.8056962025316  C 3.6963829787234 16.8386075949367  6.48446808510638 18.9392405063291  9.04787234042553 18.9392405063291  C 11.5723404255319 18.9392405063291  14.3425531914894 16.7759493670886  15.8521276595745 13.7177215189873  Z M 9.04787234042553 19.8892405063291  C 4.70489361702128 19.8892405063291  0.00638297872340208 14.8411392405063  0.0319148936170195 8.91518987341772  C 0.0319148936170213 3.90316455696203  4.01617021276596 0.0632911392405063  8.98978723404255 0.0632911392405063  C 13.9634042553191 0.0632911392405063  17.9470212765957 3.90316455696203  17.9470212765957 8.91329113924051  C 17.9757446808511 14.7481012658228  13.32 19.8886075949367  9.04787234042553 19.8886075949367  Z M 9.12765957446808 16.0145569620253  C 8.13255319148936 16.0145569620253  7.20574468085106 15.5582278481013  6.52914893617021 14.7696202531646  C 6.45958665902211 14.6849377754552  6.4216029265634 14.5790601670345  6.4216029265634 14.4698415438255  C 6.4216029265634 14.2076810613109  6.63593469526142 13.9951579995217  6.90032633081871 13.9951579995217  C 7.03704498189534 13.9951579995217  7.16724018579364 14.0531202395424  7.25808510638298 14.1544303797468  C 7.75914893617021 14.7379746835443  8.4236170212766 15.0658227848101  9.12765957446808 15.0658227848101  C 9.83170212765957 15.0658227848101  10.496170212766 14.7379746835443  10.9972340425532 14.1544303797468  C 11.0880789631425 14.0531202395425  11.2182741670408 13.9951579995218  11.3549928181174 13.9951579995218  C 11.6193844536747 13.9951579995218  11.8337162223727 14.2076810613109  11.8337162223727 14.4698415438256  C 11.8337162223727 14.5790601670345  11.795732489914 14.6849377754552  11.726170212766 14.7696202531646  C 11.0495744680851 15.5582278481013  10.1227659574468 16.0145569620253  9.12765957446808 16.0145569620253  Z M 4.81468085106383 10.9867088607595  C 4.78741719536576 11.4957284925522  4.6294425134131 11.98939995307  4.35574468085106 12.4208860759494  C 4.26809224291561 12.559032757729  4.11502711307949 12.6428587354417  3.95042553191489 12.6428587354417  C 3.6859574688445 12.6428587354417  3.47156374340557 12.4302742397533  3.47156374340557 12.1680379746835  C 3.47156374340557 12.0785682533002  3.49705713821459 11.9909190132172  3.54510638297872 11.9151898734177  C 3.73085106382978 11.6221518987342  3.83936170212766 11.2873417721519  3.85851063829787 10.9360759493671  C 3.87208243497953 10.6840886294386  4.08210171206747 10.4866662466386  4.33659574468085 10.4866662466386  C 4.60101111566624 10.4866662466386  4.81536212573048 10.6992083874196  4.81536212573048 10.9613924050633  C 4.81536212573048 10.9698357293994  4.81513495335953 10.9782775510994  4.81468085106383 10.9867088607595  Z M 3.47936170212766 8.32784810126582  C 3.9049814295851 8.61198940228084  4.25124251116325 8.99821861573457  4.48595744680851 9.45063291139241  C 4.52076194454554 9.51779312010279  4.53891703365182 9.5922133195372  4.53891703365182 9.66772151898734  C 4.53891703365182 9.93004629551464  4.32445094483817 10.1427025439164  4.05989361702127 10.1427025439164  C 3.88035385380016 10.1427025439164  3.71588788042086 10.0431528415509  3.63382978723404 9.88481012658228  C 3.47312123806868 9.57476734213071  3.2359909758321 9.31002932159341  2.94446808510638 9.11518987341772  C 2.81465855891575 9.02662094657261  2.73711753276069 8.88038405033713  2.73711753276069 8.72414138320161  C 2.73711753276069 8.46198090068699  2.95144930145871 8.24945783889781  3.21584093701601 8.24945783889781  C 3.30952451683452 8.24945783889781  3.40114923035507 8.27671369985141  3.47936170212766 8.32784810126582  Z M 13.9978723404255 9.07974683544304  C 14.0866353334088 8.94755201381026  14.2361897934191 8.86813038219171  14.396355521271 8.86813038219171  C 14.6607471568283 8.86813038219171  14.8750789255263 9.08065344398089  14.8750789255263 9.3428139264955  C 14.8750789255263 9.44670333409998  14.8407064311934 9.54772399281643  14.7772340425532 9.63037974683544  C 14.5734243196229 9.9137238184161  14.4459914050429 10.2439962623871  14.4070212765957 10.5898734177215  C 14.3798813696911 10.8301376053156  14.1749943723347 11.0118111704091  13.931170212766 11.0118111704091  C 13.6667215922638 11.0118111704091  13.4523436281406 10.7992423030295  13.4523436281406 10.5370253164557  C 13.4523436281406 10.519368125082  13.453337011676 10.5017246813691  13.4553191489362 10.4841772151899  C 13.5127659574468 9.97405063291139  13.7010638297872 9.49240506329114  13.9978723404255 9.07911392405064  Z M 13.6876595744681 12.0227848101266  C 13.6593564502172 11.9610746084301  13.6447121593901 11.8940690150579  13.6447121593901 11.8262770334731  C 13.6447121593901 11.5641165509585  13.8590439280882 11.3515934891693  14.1234355636455 11.3515934891693  C 14.3166824738645 11.3515934891693  14.4909789401909 11.466800434775  14.5653191489362 11.643670886076  C 14.7057446808511 11.9626582278481  14.9265957446808 12.2424050632911  15.2048936170213 12.4544303797468  C 15.3228328883647 12.5443495082815  15.3919493375004 12.6834953725692  15.3919493375004 12.8310126582278  C 15.3919493375004 13.0933667766988  15.1774592599047 13.3060468114456  14.9128723404255 13.3060468114456  C 14.8072480181752 13.3060468114456  14.7045845126074 13.2714348999163  14.6208510638298 13.2075949367089  C 14.2139764164288 12.8972936594715  13.8929411209566 12.4899145882908  13.6876595744681 12.023417721519  Z " fill-rule="nonzero" fill="#ffffff" stroke="none" transform="matrix(1 0 0 1 354 740 )" />
  </g>
</svg>