<?xml version="1.0" encoding="utf-8"?>
<svg version="1.1" xmlns:xlink="http://www.w3.org/1999/xlink" width="20px" height="18px" xmlns="http://www.w3.org/2000/svg">
  <g transform="matrix(1 0 0 1 -96 -182 )">
    <path d="M 7.88020833333337 7.81959134615386  C 8.46701388888891 7.23729967948719  9.17361111111109 6.94615384615383  10 6.94615384615383  C 10.8263888888889 6.94615384615383  11.5329861111111 7.23729967948719  12.1197916666666 7.81959134615386  C 12.7065972222222 8.40188301282052  13 9.10304487179485  13 9.92307692307691  C 13 10.743108974359  12.7065972222222 11.4442708333333  12.1197916666666 12.0265625  C 11.5329861111111 12.6088541666667  10.8263888888889 12.9  10 12.9  C 9.17361111111109 12.9  8.46701388888891 12.6088541666667  7.88020833333337 12.0265625  C 7.29340277777783 11.4442708333333  7 10.743108974359  7 9.92307692307691  C 7 9.10304487179485  7.29340277777783 8.40188301282052  7.88020833333337 7.81959134615386  Z M 15 2.64615384615382  L 17.3333333333334 2.64615384615382  C 18.0694444444445 2.64615384615382  18.6979166666666 2.90456730769233  19.21875 3.42139423076924  C 19.7395833333334 3.93822115384614  20 4.56185897435898  20 5.2923076923077  L 20 14.5538461538462  C 20 15.2842948717949  19.7395833333334 15.9079326923077  19.21875 16.4247596153846  C 18.6979166666666 16.9415865384615  18.0694444444445 17.2  17.3333333333334 17  L 2.66666666666663 17  C 1.93055555555554 17.2  1.30208333333337 16.9415865384615  0.78125 16.4247596153846  C 0.260416666666629 15.9079326923077  0 15.2842948717949  0 14.5538461538462  L 0 5.2923076923077  C 0 4.56185897435898  0.260416666666629 3.93822115384614  0.78125 3.42139423076924  C 1.30208333333337 2.90456730769233  1.93055555555554 2.64615384615382  2.66666666666663 2.64615384615382  L 5 2.64615384615382  L 5.53125 1.24038461538464  C 5.66319444444446 0.902724358974353  5.90451388888891 0.61157852564105  6.25520833333337 0.366947115384619  C 6.60590277777783 0.122315705128187  6.96527777777783 0  7.33333333333337 0  L 12.6666666666666 0  C 13.0347222222222 0  13.3940972222222 0.122315705128187  13.7447916666666 0.366947115384619  C 14.0954861111111 0.61157852564105  14.3368055555555 0.902724358974353  14.46875 1.24038461538464  L 15 2.64615384615382  Z M 6.703125 13.1945913461539  C 7.61631944444446 14.1007612179487  8.71527777777783 14.5538461538462  10 14.5538461538462  C 11.2847222222222 14.5538461538462  12.3836805555555 14.1007612179487  13.296875 13.1945913461539  C 14.2100694444445 12.288421474359  14.6666666666666 11.1979166666667  14.6666666666666 9.92307692307691  C 14.6666666666666 8.64823717948718  14.2100694444445 7.55773237179488  13.296875 6.65156250000001  C 12.3836805555555 5.74539262820514  11.2847222222222 5.2923076923077  10 5.2923076923077  C 8.71527777777783 5.2923076923077  7.61631944444446 5.74539262820514  6.703125 6.65156250000001  C 5.78993055555554 7.55773237179488  5.33333333333337 8.64823717948718  5.33333333333337 9.92307692307691  C 5.33333333333337 11.1979166666667  5.78993055555554 12.288421474359  6.703125 13.1945913461539  Z " fill-rule="nonzero" fill="#ffffff" stroke="none" transform="matrix(1 0 0 1 96 182 )" />
  </g>
</svg>