<?xml version="1.0" encoding="utf-8"?>
<svg version="1.1" xmlns:xlink="http://www.w3.org/1999/xlink" width="12px" height="12px" xmlns="http://www.w3.org/2000/svg">
  <g transform="matrix(1 0 0 1 -556 -189 )">
    <path d="M 11.7737077985491 10.8342171805246  L 6.92035021104911 5.98085959302455  L 11.7737077985491 1.12750200535714  C 12.0186931064732 0.882516697433035  12.0186931064732 0.478622000390625  11.7737077985491 0.233636692633929  L 11.7472229003906 0.207151794475447  C 11.5022375924665 -0.0378335134486607  11.0983428954241 -0.0378335134486607  10.8533575875 0.207151794475447  L 6 5.06713060647322  L 1.1466424125 0.207151794475447  C 0.901657104575893 -0.0378335134486607  0.497762407533482 -0.0378335134486607  0.252777099609375 0.207151794475447  L 0.226292201450893 0.233636692633929  C -0.0253143311383929 0.478622000558036  -0.0253143311383929 0.882516697600447  0.226292201450893 1.12750200552455  L 5.07964978895089 5.98085959302455  L 0.226292201450893 10.8342171805246  C -0.0186931064732143 11.0792024884487  -0.0186931064732143 11.4830971854911  0.226292201450893 11.7280824934152  L 0.252777099609375 11.7545673915737  C 0.497762407533482 11.9995526994978  0.901657104575893 11.9995526994978  1.1466424125 11.7545673915737  L 6 6.90120980407366  L 10.8533575875 11.7545673915737  C 11.0983428954241 11.9995526994978  11.5022375924665 11.9995526994978  11.7472229003906 11.7545673915737  L 11.7737077985491 11.7280824934152  C 12.0186931064732 11.4830971854911  12.0186931064732 11.0792024884487  11.7737077985491 10.8342171805246  Z " fill-rule="nonzero" fill="#ffffff" stroke="none" transform="matrix(1 0 0 1 556 189 )" />
  </g>
</svg>