<?xml version="1.0" encoding="utf-8"?>
<svg version="1.1" xmlns:xlink="http://www.w3.org/1999/xlink" width="20px" height="20px" xmlns="http://www.w3.org/2000/svg">
  <g transform="matrix(1 0 0 1 -398 -844 )">
    <path d="M 17.3039215686275 15.5269607843137  C 17.5326797385621 15.2982026143791  17.6470588235294 15.0245098039217  17.6470588235294 14.7058823529411  C 17.6470588235294 14.3790849673202  17.5326797385621 14.1013071895426  17.3039215686275 13.8725490196078  L 14.7549019607843 11.3235294117648  C 14.5261437908497 11.0947712418301  14.2483660130719 10.9803921568628  13.9215686274509 10.9803921568628  C 13.5784313725491 10.9803921568628  13.2843137254902 11.1111111111112  13.0392156862745 11.3725490196078  C 13.0637254901961 11.3970588235294  13.1413398692811 11.4726307189543  13.2720588235294 11.5992647058823  C 13.4027777777778 11.7258986928105  13.4906045751634 11.8137254901961  13.5355392156863 11.8627450980392  C 13.5804738562091 11.9117647058823  13.6417483660131 11.9893790849674  13.719362745098 12.0955882352941  C 13.796977124183 12.2017973856209  13.8500816993464 12.3059640522875  13.8786764705882 12.4080882352941  C 13.90727124183 12.5102124183007  13.9215686274509 12.6225490196078  13.9215686274509 12.7450980392156  C 13.9215686274509 13.0718954248365  13.8071895424836 13.3496732026143  13.5784313725491 13.5784313725489  C 13.3496732026143 13.8071895424837  13.0718954248366 13.9215686274511  12.7450980392157 13.9215686274511  C 12.6225490196078 13.9215686274511  12.5102124183007 13.9072712418301  12.4080882352941 13.8786764705883  C 12.3059640522875 13.8500816993464  12.2017973856209 13.7969771241829  12.0955882352941 13.719362745098  C 11.9893790849673 13.6417483660131  11.9117647058823 13.5804738562092  11.8627450980392 13.5355392156863  C 11.8137254901961 13.4906045751635  11.7258986928105 13.4027777777778  11.5992647058823 13.2720588235294  C 11.4726307189543 13.1413398692811  11.3970588235294 13.0637254901961  11.3725490196078 13.0392156862745  C 11.1029411764706 13.2924836601306  10.968137254902 13.5906862745097  10.968137254902 13.9338235294117  C 10.968137254902 14.2606209150326  11.0825163398693 14.5383986928105  11.3112745098039 14.7671568627451  L 13.8357843137255 17.3039215686275  C 14.0563725490196 17.5245098039217  14.3341503267974 17.6348039215686  14.6691176470588 17.6348039215686  C 14.9959150326798 17.6348039215686  15.2736928104575 17.5285947712418  15.5024509803922 17.3161764705883  L 17.3039215686275 15.5269607843137  Z M 8.62745098039215 6.96078431372553  C 8.89705882352939 6.70751633986936  9.03186274509801 6.40931372549028  9.03186274509801 6.06617647058829  C 9.03186274509801 5.73937908496737  8.9174836601307 5.46160130718954  8.68872549019613 5.23284313725492  L 6.16421568627453 2.69607843137248  C 5.93545751633985 2.46732026143798  5.65767973856208 2.35294117647061  5.33088235294116 2.35294117647061  C 5.01225490196077 2.35294117647061  4.734477124183 2.46323529411768  4.49754901960785 2.68382352941171  L 2.69607843137254 4.4730392156863  C 2.46732026143792 4.70179738562092  2.35294117647061 4.97549019607834  2.35294117647061 5.2941176470589  C 2.35294117647061 5.62091503267982  2.46732026143792 5.89869281045742  2.69607843137254 6.12745098039215  L 5.24509803921569 8.67647058823525  C 5.46568627450978 8.89705882352939  5.74346405228755 9.00735294117646  6.07843137254906 9.00735294117646  C 6.42156862745094 9.00735294117646  6.71568627450978 8.88071895424844  6.96078431372547 8.62745098039215  C 6.93627450980387 8.60294117647061  6.85866013071893 8.52736928104571  6.72794117647061 8.40073529411768  C 6.59722222222223 8.27410130718954  6.50939542483661 8.18627450980387  6.4644607843137 8.13725490196077  C 6.4195261437909 8.08823529411768  6.35825163398692 8.01062091503263  6.28063725490199 7.90441176470586  C 6.203022875817 7.79820261437908  6.14991830065361 7.69403594771245  6.12132352941177 7.59191176470586  C 6.09272875816998 7.48978758169926  6.07843137254906 7.37745098039215  6.07843137254906 7.25490196078442  C 6.07843137254906 6.9281045751635  6.19281045751637 6.65032679738567  6.42156862745094 6.42156862745105  C 6.65032679738567 6.19281045751632  6.92810457516339 6.07843137254895  7.25490196078431 6.07843137254895  C 7.37745098039215 6.07843137254895  7.48978758169932 6.09272875816987  7.59191176470591 6.12132352941171  C 7.69403594771245 6.14991830065355  7.79820261437908 6.20302287581706  7.90441176470591 6.28063725490199  C 8.01062091503269 6.35825163398692  8.08823529411768 6.41952614379079  8.13725490196077 6.4644607843137  C 8.18627450980387 6.5093954248365  8.27410130718954 6.59722222222217  8.40073529411768 6.72794117647061  C 8.52736928104571 6.85866013071893  8.60294117647061 6.93627450980387  8.62745098039215 6.96078431372553  Z M 18.9705882352941 12.2058823529411  C 19.656862745098 12.8921568627451  20 13.7254901960783  20 14.7058823529411  C 20 15.6862745098039  19.6527777777778 16.5155228758171  18.9583333333334 17.1936274509803  L 17.156862745098 18.9828431372549  C 16.4787581699346 19.6609477124183  15.6495098039216 20  14.6691176470588 20  C 13.6805555555555 20  12.8472222222222 19.6527777777778  12.1691176470588 18.9583333333334  L 9.64460784313724 16.4215686274511  C 8.96650326797385 15.7434640522875  8.62745098039215 14.9142156862745  8.62745098039215 13.9338235294117  C 8.62745098039215 12.9289215686275  8.98692810457521 12.0751633986928  9.70588235294116 11.3725490196078  L 8.62745098039215 10.2941176470589  C 7.92483660130722 11.0130718954248  7.07516339869278 11.3725490196078  6.07843137254906 11.3725490196078  C 5.0980392156863 11.3725490196078  4.26470588235293 11.0294117647059  3.57843137254906 10.343137254902  L 1.02941176470591 7.7941176470589  C 0.34313725490199 7.10784313725492  0 6.27450980392166  0 5.2941176470589  C 0 4.31372549019613  0.347222222222229 3.48447712418294  1.04166666666663 2.80637254901967  L 2.84313725490199 1.01715686274508  C 3.52124183006538 0.339052287581694  4.3504901960784 0  5.33088235294116 0  C 6.31944444444446 0  7.15277777777777 0.347222222222172  7.83088235294116 1.04166666666663  L 10.3553921568628 3.57843137254895  C 11.0334967320262 4.25653594771245  11.3725490196078 5.08578431372553  11.3725490196078 6.06617647058829  C 11.3725490196078 7.07107843137248  11.0130718954248 7.92483660130722  10.2941176470588 8.62745098039215  L 11.3725490196078 9.7058823529411  C 12.0751633986928 8.98692810457521  12.9248366013072 8.62745098039215  13.9215686274509 8.62745098039215  C 14.9019607843137 8.62745098039215  15.7352941176471 8.97058823529414  16.4215686274509 9.65686274509801  L 18.9705882352941 12.2058823529411  Z " fill-rule="nonzero" fill="#096dd9" stroke="none" transform="matrix(1 0 0 1 398 844 )" />
  </g>
</svg>