<?xml version="1.0" encoding="utf-8"?>
<svg version="1.1" xmlns:xlink="http://www.w3.org/1999/xlink" width="20px" height="15px" xmlns="http://www.w3.org/2000/svg">
  <g transform="matrix(1 0 0 1 -208 -847 )">
    <path d="M 0.398837491512182 2.26993241287806  C 0.398837491512182 2.73842035512195  0.604600182634158 2.66808905053659  1.01496309385365 3.21155831258534  C 1.42300098809756 3.75677132800001  1.85893889873171 4.18805924214632  2.32219558087806 4.50135330341465  C 2.57503957541462 4.68386597463416  3.04875877775609 5.21280398360977  4.32285998829269 6.09630481482924  C 5.59754246243904 6.98038690965853  6.57694963512196 7.65870631336583  7.25294404058536 8.13765675707316  C 7.32792536039025 8.19055056546341  7.48602552195121 8.30563817521949  7.72898824117073 8.47826958985365  C 7.96962596214635 8.65380726634146  8.17248241014633 8.79679489248781  8.33232630634146 8.90374499902441  C 8.49275146614633 9.01360134868293  8.68514539395122 9.13392021853656  8.91357686009755 9.26935158634149  C 9.13910208312194 9.40245795590243  9.35183976897559 9.50243306770733  9.55527748058537 9.57043937404876  C 9.75522766673171 9.6378644355122  9.94064659980486 9.67041446712193  10.113278014439 9.67041446712193  L 10.1382717877073 9.67041446712193  C 10.3085782040976 9.67041446712193  10.493997118439 9.6378644355122  10.696853566439 9.57043937404876  C 10.9208759169227 9.49369639999964  11.135854818491 9.3927362259189  11.3379729233171 9.26935158634149  C 11.5634981463415 9.13217644643902  11.7587983172683 9.01185759531705  11.9186422321951 8.90374499902441  C 12.079067392 8.79621364760976  12.2795988230244 8.65322600273169  12.5225615609756 8.47826958985365  C 12.7655242989268 8.30563817521949  12.923043196878 8.19055056546341  12.9980245166829 8.13765675707316  C 13.6844814236098 7.65928755824388  14.8946450794146 6.44970514731705  17.6968540035122 4.50367830165851  C 18.231839503863 4.13256433335079  18.6943853728151 3.66666953233926  19.0616302954146 3.129020734439  C 19.4278181463415 2.59310773073173  19.610330817561 2.61054524565856  19.610330817561 2.02231967843903  C 19.610330817561 1.53174420604876  19.4347931410732 1.15974385014636  19.0796490552195 0.808668515902411  C 18.7268299676097 0.460499424780494  18.3054233100488 0.285543011902462  17.8224041147317 0.28554303063413  L 2.18734545795121 0.28554303063413  C 1.6136511625366 0.28554303063413  1.17015699356097 0.478518222048763  0.86267543726828 0.866793584390223  C 0.554031391219524 1.25390645697559  0.398837491512182 1.68868185912197  0.398837491512182 2.26993241287806  Z M 18.4983985014634 5.70396070087804  C 16.0542399250732 7.35645603590245  14.7318949026341 8.64334474614634  13.4641874606829 9.55997687258537  C 13.1254245127236 9.81216575288363  12.780643177472 10.0561678304962  12.4301427262439 10.2917713108292  C 12.164511232 10.4644027254634  11.8140171426342 10.644590398439  11.3734292167805 10.8276843332683  C 10.9322600460488 11.0078720062439  10.5242221518049 11.1008720858537  10.1435030478049 11.1008720858537  L 10.1185092745366 11.1008720858537  C 9.73779017053658 11.1008720858537  9.32975227629268 11.0107782493658  8.88858308682927 10.8276843332683  C 8.44799516097561 10.6469154154146  8.0945948284878 10.466727742439  7.83186959609756 10.2917713108292  C 7.48079103408801 10.0570069899456  7.13598867865787 9.81299004075316  6.79782484292684 9.55997687258537  C 5.79109887999999 8.82353241912193  4.22869740019513 7.53664369014632  1.53111358439025 5.70337943726827  C 1.11565718306193 5.42659641478565  0.736282029047885 5.09915836598469  0.401743753365849 4.72862226107316  L 0.401743753365849 13.0736364768781  C 0.401743753365849 13.5647931941463  0.574375167999989 13.9879436050732  0.927775500487797 14.3361126774634  C 1.27826958985366 14.6842817685854  1.69909498380488 14.8592381814634  2.18967045619513 14.8592381814634  L 17.8253103765854 14.8592381814634  C 18.3158858489756 14.8592381814634  18.7361299980488 14.6866067668292  19.087205313561 14.3361126774634  C 19.4353744046829 13.9850373432195  19.610330817561 13.5647931941463  19.610330817561 13.0736364768781  L 19.610330817561 4.7292035059512  C 19.2781174605226 5.09550930110686  18.9050421786251 5.42255961704262  18.4983985014634 5.70396070087804  Z " fill-rule="nonzero" fill="#096dd9" stroke="none" transform="matrix(1 0 0 1 208 847 )" />
  </g>
</svg>