<?xml version="1.0" encoding="utf-8"?>
<svg version="1.1" xmlns:xlink="http://www.w3.org/1999/xlink" width="18px" height="18px" xmlns="http://www.w3.org/2000/svg">
  <g transform="matrix(1 0 0 1 -209 -741 )">
    <path d="M 12.3906777871622 9  C 12.3906777871622 6.90025684931507  10.7065033783784 5.19301155821918  8.63513513513514 5.19301155821918  C 6.56614231418919 5.19301155821918  4.88196790540541 6.90025684931507  4.88196790540541 9  C 4.88196790540541 11.0997431506849  6.56614231418919 12.8069884417808  8.63513513513514 12.8069884417808  C 10.7041279560811 12.8069884417808  12.3906777871622 11.0997431506849  12.3906777871622 9  Z M 11.278980152027 9  C 11.278980152027 10.4760809075342  10.0936444256757 11.677654109589  8.63513513513514 11.677654109589  C 7.17900126689189 11.677654109589  5.99366554054054 10.4760809075342  5.99366554054054 9  C 5.99366554054054 7.52391909246575  7.17900126689189 6.32234589041096  8.63513513513514 6.32234589041096  C 10.0912690033784 6.32234589041096  11.278980152027 7.52391909246575  11.278980152027 9  Z M 17.9087837837838 15.0608411815068  C 17.9111592060811 14.7502140410959  17.6617398648649 14.4973779965753  17.3529349662162 14.4973779965753  C 17.0465054898649 14.4973779965753  16.7970861486486 14.7502140410959  16.7970861486486 15.0608411815069  L 16.7970861486486 15.9541952054795  L 15.521484375 14.6611194349315  C 15.3053209459459 14.4419948630137  14.9513830236486 14.4419948630137  14.7352195945946 14.6611194349315  C 14.5190561655405 14.8802440068493  14.5190561655405 15.2390303938356  14.7352195945946 15.4581549657534  L 16.0108213682432 16.7512307363014  L 15.4074641047297 16.7512307363014  C 15.1010346283784 16.7512307363014  14.8516152871622 17.0040667808219  14.8516152871622 17.3146939212329  C 14.8516152871622 17.6253210616438  15.1010346283784 17.8781571061644  15.4074641047297 17.8781571061644  L 17.3553103885135 17.8781571061644  C 17.390941722973 17.8781571061644  17.4289484797297 17.8733411815068  17.4645798141892 17.8661172945205  C 17.4812077702703 17.8637093321918  17.4978357263514 17.8564854452055  17.5120882601351 17.8516695205479  C 17.5310916385135 17.8468535958904  17.5500950168919 17.8420376712329  17.566722972973 17.8348137842466  C 17.5857263513514 17.8275898972603  17.6023543074324 17.8155500856164  17.6213576858108 17.8059182363014  C 17.6356102195946 17.7986943493151  17.6498627533784 17.7914704623288  17.6617398648649 17.7842465753425  C 17.7235008445946 17.7433112157534  17.7757601351351 17.6903360445205  17.8161423141892 17.6277290239726  C 17.8256440033784 17.61328125  17.830394847973 17.5988334760274  17.8375211148649 17.5867936643836  C 17.8470228040541 17.5675299657534  17.8588999155405 17.550674229452  17.8660261824324 17.5314105308219  C 17.8731524493243 17.5121468321918  17.8779032939189 17.4928831335616  17.8826541385135 17.4760273972603  C 17.8874049831081 17.4591716609589  17.89453125 17.4447238869863  17.8969066722973 17.4278681506849  C 17.9040329391892 17.3917487157534  17.9087837837838 17.3556292808219  17.9087837837838 17.3171018835616  L 17.9087837837838 15.0608411815068  Z M 0.109744510135135 2.93675085616438  C 0.109744510135135 3.24978595890411  0.359163851351351 3.50262200342466  0.665593327702703 3.50262200342466  C 0.972022804054054 3.50262200342466  1.22144214527027 3.24978595890411  1.22144214527027 2.93915881849315  L 1.22144214527027 2.04580479452055  L 2.49704391891892 3.33888056506849  C 2.6063133445946 3.44964683219178  2.74883868243243 3.50502996575342  2.89136402027027 3.50502996575342  C 3.03388935810811 3.50502996575342  3.17641469594595 3.44964683219178  3.28568412162162 3.33888056506849  C 3.50184755067568 3.11975599315068  3.50184755067568 2.76096960616438  3.28568412162162 2.54184503424658  L 2.00770692567568 1.24636130136986  L 2.61106418918919 1.24636130136986  C 2.91749366554054 1.24636130136986  3.16691300675676 0.993525256849315  3.16691300675676 0.682898116438356  C 3.16691300675676 0.372270976027397  2.91749366554054 0.119434931506849  2.61106418918919 0.119434931506849  L 0.663217905405405 0.119434931506849  C 0.627586570945945 0.119434931506849  0.589579814189189 0.124250856164383  0.55394847972973 0.131474743150684  C 0.537320523648649 0.133882705479452  0.520692567567567 0.141106592465753  0.506440033783784 0.145922517123287  C 0.487436655405405 0.150738441780821  0.468433277027027 0.155554366438356  0.451805320945945 0.162778253424657  C 0.432801942567567 0.170002140410958  0.416173986486486 0.182041952054794  0.397170608108107 0.191673801369862  C 0.382918074324324 0.198897688356164  0.36866554054054 0.206121575342465  0.356788429054053 0.213345462328766  C 0.295027449324324 0.254280821917807  0.242768158783783 0.307255993150684  0.202385979729729 0.369863013698629  C 0.19288429054054 0.384310787671232  0.188133445945946 0.398758561643835  0.181007179054053 0.41079837328767  C 0.171505489864864 0.430062071917807  0.159628378378378 0.446917808219177  0.152502111486486 0.466181506849314  C 0.145375844594594 0.485445205479452  0.140625 0.504708904109588  0.135874155405405 0.521564640410958  C 0.131123310810811 0.538420376712328  0.123997043918918 0.552868150684931  0.121621621621622 0.569723886986301  C 0.114495354729729 0.605843321917808  0.109744510135135 0.641962756849314  0.109744510135135 0.680490154109588  L 0.109744510135135 2.93675085616438  Z " fill-rule="nonzero" fill="#ffffff" stroke="none" transform="matrix(1 0 0 1 209 741 )" />
  </g>
</svg>