<?xml version="1.0" encoding="utf-8"?>
<svg version="1.1" xmlns:xlink="http://www.w3.org/1999/xlink" width="20px" height="18px" xmlns="http://www.w3.org/2000/svg">
  <g transform="matrix(1 0 0 1 -869 -318 )">
    <path d="M 10.1433333333333 11.0460759943182  C 9.96510416666665 11.5247869318182  9.87179687500002 12.0367098721591  9.87179687500002 12.5631214488636  C 9.87179687500002 14.9331587357955  11.7651041666667 16.8560724431818  14.1025520833333 16.8560724431818  C 16.4400260416667 16.8560724431818  18.3333333333334 14.9331587357955  18.3333333333334 12.5631214488636  C 18.3333333333334 10.3892134232955  16.7345833333333 8.57501775568183  14.643359375 8.30487393465907  C 13.7458072916667 9.90408380681816  12.0715625 10.99443359375  10.143359375 11.0460493607954  Z M 15.341875 5.61869673295456  C 15.341875 6.17935901988638  15.25828125 6.72015269886364  15.1030729166667 7.22887961647729  C 17.5853645833333 7.70639204545453  19.444453125 9.92365944602271  19.444453125 12.5631214488636  C 19.444453125 15.5625355113636  17.0519270833333 17.9924183238637  14.1025520833333 17.9924183238637  C 12.4544270833333 17.9924183238637  10.9802083333333 17.2336558948864  10.00015625 16.0407404119318  C 8.99997395833334 17.2596502130682  7.51028645833335 17.9924449573864  5.89744791666667 17.9924449573864  C 2.94807291666666 17.9924449573864  0.555546874999982 15.5625355113636  0.555546874999982 12.5631214488636  C 0.555546874999982 9.91140802556818  2.42554687500001 7.70482066761362  4.89710937499999 7.22887961647729  C 4.73955729166669 6.71266867897725  4.65812500000002 6.17126242897727  4.65812500000002 5.61869673295456  C 4.65812500000002 2.61928267045454  7.05062499999999 0.189399857954522  10 0.189399857954522  C 12.949375 0.189399857954522  15.341875 2.61928267045454  15.341875 5.61869673295456  Z M 5.89744791666667 16.8560724431818  C 7.29002604166667 16.8560724431818  8.56500000000001 16.1683948863636  9.35013020833335 15.0449129971591  C 8.97338541666668 14.3011452414773  8.76067708333335 13.4574485085227  8.76067708333335 12.5631214488636  C 8.76067708333335 11.6873313210227  8.96541666666667 10.8411310369318  9.35026041666665 10.0814364346591  C 8.56591145833331 8.95888671875002  7.29088541666665 8.27019708806819  5.89744791666667 8.27019708806819  C 3.55997395833333 8.27019708806819  1.66666666666665 10.1931107954545  1.66666666666665 12.5631214488636  C 1.66666666666665 14.9331587357955  3.55997395833333 16.8560724431818  5.89744791666667 16.8560724431818  Z M 10.5490885416667 9.87579900568183  C 12.6269010416667 9.60261896306817  14.23078125 7.80003551136363  14.23078125 5.61869673295456  C 14.23078125 3.24865944602273  12.3374479166667 1.32574573863635  10 1.32574573863635  C 7.66255208333332 1.32574573863635  5.76921874999998 3.24865944602273  5.76921874999998 5.61869673295456  C 5.76921874999998 6.14444247159092  5.86218749999998 6.65609907670453  6.04083333333333 7.13576882102275  C 7.81330729166666 7.18360262784091  9.42138020833336 8.11606889204545  10.37296875 9.59793146306819  C 10.4574276232679 9.67053955702542  10.5187481138158 9.76730036778906  10.5490625 9.87579900568183  Z " fill-rule="nonzero" fill="#ffffff" stroke="none" transform="matrix(1 0 0 1 869 318 )" />
  </g>
</svg>