<?xml version="1.0" encoding="utf-8"?>
<svg version="1.1" xmlns:xlink="http://www.w3.org/1999/xlink" width="40px" height="35px" xmlns="http://www.w3.org/2000/svg">
  <g transform="matrix(1 0 0 1 -396 -497 )">
    <path d="M 20.9821428571428 33.996875  C 20.7142857142857 34.265625  20.3869047619048 34.4  20 34.4  C 19.6130952380952 34.4  19.2857142857143 34.265625  19.0178571428572 33.996875  L 5.08928571428572 20.5145833333333  C 4.9404761904762 20.3951388888889  4.73586309523807 20.2010416666666  4.47544642857144 19.9322916666666  C 4.21502976190476 19.6635416666667  3.80208333333331 19.1745659722222  3.23660714285717 18.4653645833333  C 2.67113095238096 17.7561631944444  2.16517857142856 17.0282986111111  1.71875 16.2817708333333  C 1.27232142857144 15.5352430555556  0.874255952380963 14.6319444444445  0.524553571428555 13.571875  C 0.174851190476204 12.5118055555556  0 11.4815972222222  0 10.48125  C 0 7.19652777777776  0.944940476190482 4.62847222222223  2.83482142857144 2.77708333333334  C 4.72470238095241 0.925694444444446  7.33630952380952 0  10.6696428571428 0  C 11.5922619047619 0  12.5334821428572 0.160503472222217  13.4933035714286 0.481510416666652  C 14.453125 0.802517361111086  15.3459821428572 1.23550347222221  16.171875 1.78046875000001  C 16.9977678571429 2.32543402777776  17.7083333333333 2.83680555555554  18.3035714285714 3.3145833333333  C 18.8988095238095 3.79236111111112  19.4642857142857 4.30000000000001  20 4.83749999999998  C 20.5357142857143 4.30000000000001  21.1011904761905 3.79236111111112  21.6964285714286 3.3145833333333  C 22.2916666666667 2.83680555555554  23.0022321428572 2.32543402777776  23.828125 1.78046875000001  C 24.6540178571428 1.23550347222221  25.546875 0.802517361111086  26.5066964285714 0.481510416666652  C 27.4665178571428 0.160503472222217  28.4077380952381 0  29.3303571428572 0  C 32.6636904761905 0  35.2752976190476 0.925694444444446  37.1651785714286 2.77708333333334  C 39.0550595238095 4.62847222222223  40 7.19652777777776  40 10.48125  C 40 13.7809027777778  38.296130952381 17.1402777777778  34.8883928571428 20.559375  L 20.9821428571428 33.996875  Z " fill-rule="nonzero" fill="#ffffff" stroke="none" transform="matrix(1 0 0 1 396 497 )" />
  </g>
</svg>