<?xml version="1.0" encoding="utf-8"?>
<svg version="1.1" xmlns:xlink="http://www.w3.org/1999/xlink" width="12px" height="15px" xmlns="http://www.w3.org/2000/svg">
  <g transform="matrix(1 0 0 1 -103 -683 )">
    <path d="M 0.0711462466032607 6.02655920126272  C 0.0711462466032607 2.71260571289063  2.72569169497283 0.0257663971656978  6 0.0257663801326307  C 9.27430830502717 0.0257663801326307  11.9288537533967 2.71260569585756  11.9288537533967 6.02655920126272  C 11.9288537533967 8.18380021915879  10.0446640285326 11.1148255813953  6.27667984035326 14.8188425009084  C 6.12298675470469 14.9699297937243  5.87701324529532 14.9699297937243  5.72332015964674 14.8188425009084  L 5.54545455163044 14.6432346645621  C 1.89604743546196 11.0220665992914  0.0711462466032607 8.15010571289063  0.0711462466032607 6.02655920126272  Z M 6 3.58350952148438  C 4.90852816580059 3.58350952148438  4.02371542119565 4.47089439616084  4.02371542119565 5.5655391135992  C 4.02371542119565 6.66018383103757  4.90852816580059 7.54756870571403  6 7.54756870571403  C 7.09147183419941 7.54756870571403  7.97628457880435 6.66018383103757  7.97628457880435 5.5655391135992  C 7.97628457880435 4.47089439616084  7.09147183419941 3.58350952148438  6 3.58350952148438  Z " fill-rule="nonzero" fill="#ffffff" stroke="none" transform="matrix(1 0 0 1 103 683 )" />
  </g>
</svg>