<?xml version="1.0" encoding="utf-8"?>
<svg version="1.1" xmlns:xlink="http://www.w3.org/1999/xlink" width="21px" height="16px" xmlns="http://www.w3.org/2000/svg">
  <g transform="matrix(1 0 0 1 -29 -332 )">
    <path d="M 5.35095174075774 8.84  C 5.05345177385083 8.41583333984375  4.57261848749367 8.41583333984375  4.27595186033781 8.84  L 0.144285659776922 14.7333333398437  C -0.153214307129988 15.1566666796875  0.0242856731253951 15.5  0.539285615838196 15.5  L 19.4642835106727 15.5  C 19.9801167931365 15.5  20.1526167739481 15.1575  19.8534501275391 14.735  L 13.3084508555871 5.50583333984375  C 13.0067842289874 5.08083333984375  12.5226176031573 5.0825  12.2226176365285 5.50583333984375  L 7.59095149158624 12.0366666601563  L 5.35011840100669 8.84  Z M 2.72761869272645 2.375  C 2.72761869272645 3.41083333984375  3.54178526231702 4.25  4.54595183030375 4.25  C 5.55011839829048 4.25  6.36345162813 3.41083333984375  6.36345162813 2.375  C 6.36345162813 1.33916666015625  5.55095171851028 0.5  4.5467851700548 0.5  C 3.54261862159932 0.5  2.7284520324775 1.33916666015625  2.7284520324775 2.375  Z " fill-rule="nonzero" fill="#000000" stroke="none" transform="matrix(1 0 0 1 29 332 )" />
  </g>
</svg>