<?xml version="1.0" encoding="utf-8"?>
<svg version="1.1" xmlns:xlink="http://www.w3.org/1999/xlink" width="60px" height="44px" xmlns="http://www.w3.org/2000/svg">
  <g transform="matrix(1 0 0 1 -158 -97 )">
    <path d="M 16.1884653271968 24.464  L 16.1909405940594 24.464  C 15.3072772277228 23.219777796875  13.8790593866027 23.219777796875  12.9978712871287 24.464  L 0.725594078743812 41.7511111302083  C -0.158069287592822 42.9928889270833  0.369158435179455 44  1.89886140547648 44  L 58.1117326926052 44  C 59.6439109297649 44  60.1562871673886 42.9953333333333  59.2676732673267 41.756  L 39.8270792079208 14.683777796875  C 38.9310396232983 13.4371111302083  37.4929207727413 13.442  36.6018316638304 14.683777796875  L 22.8444059405941 33.8408888697917  L 16.1884653271968 24.464  Z M 8.40133663366337 5.5  L 8.39886136680074 5.5  C 8.39886136680074 8.53844446354167  10.817178179146 11  13.7998514851485 11  C 16.782524791151 11  19.1983663366337 8.53844446354167  19.1983663366337 5.5  C 19.1983663366337 2.46155553645833  16.785 0  13.8023267520111 0  C 10.8196535040223 0  8.40133663366337 2.46155553645833  8.40133663366337 5.5  Z " fill-rule="nonzero" fill="#096dd9" stroke="none" transform="matrix(1 0 0 1 158 97 )" />
  </g>
</svg>