<?xml version="1.0" encoding="utf-8"?>
<svg version="1.1" xmlns:xlink="http://www.w3.org/1999/xlink" width="15px" height="12px" xmlns="http://www.w3.org/2000/svg">
  <g transform="matrix(1 0 0 1 -580 -834 )">
    <path d="M 4.04773514851485 6.672  C 3.82681930693069 6.332666671875  3.46976484665068 6.332666671875  3.24946782178218 6.672  L 0.181398519685953 11.386666671875  C -0.0395173218982054 11.72533334375  0.0922896087948639 12  0.474715351369121 12  L 14.5279331731513 12  C 14.9109777324412 12  15.0390717918472 11.726  14.8169183168317 11.388  L 9.9567698019802 4.004666671875  C 9.73275990582457 3.664666671875  9.37323019318534 3.666  9.15045791595761 4.004666671875  L 5.71110148514852 9.229333328125  L 4.0471163317992 6.672  Z M 2.09971534170019 1.5  C 2.09971534170019 2.328666671875  2.70429454478651 3  3.44996287128713 3  C 4.19563119778775 3  4.79959158415842 2.328666671875  4.79959158415842 1.5  C 4.79959158415842 0.671333328125  4.19625 0  3.45058168800278 0  C 2.70491337600557 0  2.10033415841584 0.671333328125  2.10033415841584 1.5  Z " fill-rule="nonzero" fill="#f5222d" stroke="none" transform="matrix(1 0 0 1 580 834 )" />
  </g>
</svg>