<?xml version="1.0" encoding="utf-8"?>
<svg version="1.1" xmlns:xlink="http://www.w3.org/1999/xlink" width="11px" height="12px" xmlns="http://www.w3.org/2000/svg">
  <g transform="matrix(1 0 0 1 -380 -814 )">
    <path d="M 10.6452008928571 0.201923076923049  C 10.7769717261905 0.336538461538476  10.8428571428571 0.5  10.8428571428571 0.692307692307713  L 10.8428571428571 8.76923076923076  C 10.8428571428571 9.00961538461543  10.762853422619 9.22355769230771  10.6028459821429 9.41105769230771  C 10.4428385416666 9.59855769230771  10.2404761904762 9.74399038461543  9.99575892857139 9.84735576923076  C 9.75104166666666 9.95072115384619  9.5075009300595 10.0276442307692  9.26513671875 10.078125  C 9.02277250744045 10.1286057692308  8.79570312500001 10.1538461538461  8.58392857142858 10.1538461538461  C 8.37215401785715 10.1538461538461  8.14508463541666 10.1286057692308  7.90272042410716 10.078125  C 7.66035621279761 10.0276442307692  7.41681547619045 9.95072115384619  7.17209821428568 9.84735576923076  C 6.92738095238095 9.74399038461543  6.72501860119047 9.59855769230771  6.56501116071429 9.41105769230771  C 6.4050037202381 9.22355769230771  6.32500000000001 9.00961538461543  6.32500000000001 8.76923076923076  C 6.32500000000001 8.52884615384619  6.4050037202381 8.3149038461539  6.56501116071429 8.1274038461539  C 6.72501860119047 7.9399038461539  6.92738095238095 7.79447115384619  7.17209821428568 7.69110576923076  C 7.41681547619045 7.58774038461543  7.66035621279761 7.51081730769229  7.90272042410716 7.46033653846152  C 8.14508463541666 7.40985576923076  8.37215401785715 7.38461538461534  8.58392857142858 7.38461538461534  C 9.07806919642854 7.38461538461534  9.52985491071428 7.47836538461534  9.9392857142857 7.66586538461534  L 9.9392857142857 3.79326923076924  L 4.51785714285714 5.5024038461539  L 4.51785714285714 10.6153846153847  C 4.51785714285714 10.8557692307692  4.43785342261905 11.0697115384615  4.27784598214282 11.2572115384615  C 4.11783854166668 11.4447115384615  3.9154761904762 11.5901442307692  3.67075892857143 11.6935096153847  C 3.42604166666665 11.796875  3.18250093005949 11.8737980769231  2.94013671874999 11.9242788461539  C 2.69777250744049 11.9747596153847  2.470703125 12  2.25892857142857 12  C 2.04715401785714 12  1.82008463541665 11.9747596153847  1.57772042410711 11.9242788461539  C 1.3353562127976 11.8737980769231  1.09181547619049 11.796875  0.847098214285714 11.6935096153847  C 0.60238095238094 11.5901442307692  0.400018601190506 11.4447115384615  0.240011160714277 11.2572115384615  C 0.0800037202380923 11.0697115384615  0 10.8557692307692  0 10.6153846153847  C 0 10.375  0.0800037202380923 10.1610576923077  0.240011160714277 9.97355769230771  C 0.400018601190506 9.78605769230771  0.60238095238094 9.640625  0.847098214285714 9.53725961538466  C 1.09181547619049 9.43389423076924  1.3353562127976 9.3569711538461  1.57772042410711 9.30649038461534  C 1.82008463541665 9.25600961538466  2.04715401785714 9.23076923076924  2.25892857142857 9.23076923076924  C 2.75306919642857 9.23076923076924  3.20485491071428 9.32451923076924  3.61428571428573 9.51201923076924  L 3.61428571428573 2.53846153846152  C 3.61428571428573 2.38942307692305  3.65899367559521 2.25360576923076  3.74840959821425 2.13100961538466  C 3.83782552083334 2.00841346153848  3.953125 1.92307692307695  4.09430803571429 1.875  L 9.96752232142859 0.0288461538460979  C 10.0239955357143 0.00961538461542659  10.0898809523809 0  10.1651785714286 0  C 10.3534226190476 0  10.5134300595238 0.0673076923076223  10.6452008928571 0.201923076923049  Z " fill-rule="nonzero" fill="#ffffff" stroke="none" transform="matrix(1 0 0 1 380 814 )" />
  </g>
</svg>