<?xml version="1.0" encoding="utf-8"?>
<svg version="1.1" xmlns:xlink="http://www.w3.org/1999/xlink" width="15px" height="16px" xmlns="http://www.w3.org/2000/svg">
  <g transform="matrix(1 0 0 1 -47 -707 )">
    <path d="M 14.9486301369863 7.93150684931507  C 14.9486301369863 3.61643835616438  11.6095890410959 0.0547945205479468  7.56421232876713 0.0547945205479456  L 7.43578767123288 0.0547945205479456  C 3.39041095890411 0.0547945205479456  0.051369863013699 3.61643835616438  0.051369863013699 7.93150684931507  L 0.051369863013699 8.06849315068493  C 0.051369863013699 12.3835616438356  3.39041095890411 15.9452054794521  7.43578767123288 15.9452054794521  L 7.56421232876713 15.9452054794521  C 11.6095890410959 15.9452054794521  14.9486301369863 12.3835616438356  14.9486301369863 8.06849315068493  L 14.9486301369863 7.93150684931507  Z M 7.56421232876713 14.5753424657534  L 7.43578767123288 14.5753424657534  C 4.09674657534247 14.5753424657534  1.33561643835617 11.6301369863014  1.33561643835617 8.06849315068493  L 1.33561643835617 7.93150684931507  C 1.33561643835617 6.35616438356165  1.84931506849315 4.98630136986302  2.68407534246575 3.82191780821918  L 11.4169520547945 13.1369863013699  C 10.3895547945205 14.027397260274  9.04109589041096 14.5753424657534  7.56421232876713 14.5753424657534  Z M 13.6643835616438 7.93150684931507  L 13.6643835616438 8.06849315068493  C 13.6643835616438 9.64383561643836  13.1506849315068 11.013698630137  12.3159246575342 12.1780821917808  L 3.58304794520548 2.86301369863014  C 4.61044520547945 1.97260273972603  5.95890410958904 1.42465753424658  7.43578767123288 1.42465753424658  L 7.56421232876713 1.42465753424658  C 10.9032534246575 1.42465753424658  13.6643835616438 4.36986301369863  13.6643835616438 7.93150684931507  Z " fill-rule="nonzero" fill="#ffffff" stroke="none" transform="matrix(1 0 0 1 47 707 )" />
  </g>
</svg>