<?xml version="1.0" encoding="utf-8"?>
<svg version="1.1" xmlns:xlink="http://www.w3.org/1999/xlink" width="25px" height="26px" xmlns="http://www.w3.org/2000/svg">
  <g transform="matrix(1 0 0 1 -301 -841 )">
    <path d="M 6.68073116629463 7.23329819568448  L 14.9939233816964 7.23329819568448  L 14.9939233816964 5.57062548363092  L 16.6565675502232 5.57062548363092  L 16.6565675502232 3.90798131510417  L 6.68073116629463 3.90798134300593  L 6.68073116629463 0.582721577380937  L 3.35541431361608 0.582721577380937  L 3.35541431361608 3.90798134300593  L 0.0301260044642788 3.90798134300593  L 0.0301260044642788 7.23329819568448  L 3.35541431361608 7.23329819568448  L 3.35541431361608 18.8718072916666  L 3.35541431361608 22.1971241443453  L 6.68073116629463 22  L 18.3192688058036 22  L 18.3192688337054 25.5223553664434  L 21.6445285993304 25.5223553664434  L 21.6445285714286 22.1970956008184  L 23.3071727399553 22.1970956008184  L 23.3071727399553 18.8718072916666  L 21.6445285714286 18.8718072916666  L 21.6445285714286 8.89591382068454  L 19.9819415178571 8.89591382068454  L 19.9819415178571 10.5585294177828  L 18.3192973493304 10.5585294177828  L 18.3192973493304 18.8717787481398  L 8.34340387834823 18.8717787481398  L 8.34340387834823 17.2091060360863  L 6.68075970982142 17.2091060360863  L 6.68075973772321 7.23329819568448  Z M 8.34340387834823 15.5465189825148  L 8.34340387834823 17.2091060360863  L 10.0059909319197 17.2091060360863  L 10.0059909319197 15.5465189825148  L 8.34340387834823 15.5465189825148  Z M 10.0059909319197 13.8838748139881  L 10.0059909319197 15.5465189825148  L 11.6686351004464 15.5465189825148  L 11.6686351004464 13.8838748139881  L 10.0059909319197 13.8838748139881  Z M 11.6686636439732 12.2212021019345  L 11.6686636439732 13.8838462704613  L 13.3312792410714 13.8838462704613  L 13.3312792410714 12.2212021019345  L 11.6686636439732 12.2212021019345  Z M 13.3312792410714 10.5585579613095  L 13.3312792410714 12.2212021298363  L 14.9939234095982 12.2212021298363  L 14.9939234095982 10.5585579613095  L 13.3312792410714 10.5585579613095  Z M 14.993951953125 8.89591382068454  L 14.993951953125 10.5585294177828  L 16.6565961216518 10.5585294177828  L 16.6565961216518 8.89591382068454  L 14.993951953125 8.89591382068454  Z M 16.6565961216518 7.2332982235863  L 16.6565961216518 8.89591382068454  L 18.3192688337054 8.89591382068454  L 18.3192688337054 7.2332982235863  L 16.6565961216518 7.2332982235863  Z M 18.3192688337054 5.57062548363092  L 18.3192688337054 7.23329819568448  L 19.9819130022321 7.23329819568448  L 19.9819130022321 5.57062548363092  L 18.3192688337054 5.57062548363092  Z M 19.9819415178571 3.90798131510417  L 19.9819415178571 5.57062548363092  L 21.6445285714286 5.57062548363092  L 21.6445285714286 3.90798131510417  L 19.9819415178571 3.90798131510417  Z M 21.6445285714286 2.2453942894345  L 21.6445285714286 3.90798134300593  L 23.3071727399553 3.90798134300593  L 23.3071727399553 2.2453942894345  L 21.6445285714286 2.2453942894345  Z M 24.9697883370536 0.582721577380937  L 23.3072012834822 0.582721577380937  L 23.3072012834822 2.24536574590775  L 24.9697883370536 2.24536574590775  L 24.9697883370536 0.582721577380937  Z " fill-rule="nonzero" fill="#096dd9" stroke="none" transform="matrix(1 0 0 1 301 841 )" />
  </g>
</svg>