<?xml version="1.0" encoding="utf-8"?>
<svg version="1.1" xmlns:xlink="http://www.w3.org/1999/xlink" width="25px" height="25px" xmlns="http://www.w3.org/2000/svg">
  <g transform="matrix(1 0 0 1 -206 -762 )">
    <path d="M 8.93108471679687 0.726502431640682  L 17.3975844335938 9.18892490234384  L 17.3975844335938 1.20596735351569  C 17.3975844335938 1.20596735351569  13.4911729882812 -0.888202802734298  8.93108471679687 0.726502431640682  Z M 24.056639609375 8.71224810546872  L 18 13.8853007714844  L 18 1.53559387695319  C 18.1371530175781 1.53559387695319  22.7552219726563 3.62838497070319  24.056639609375 8.71224810546872  Z M 23.4368697851562 17.4749469921875  L 15.6527674121094 17.4749469921875  L 24.1778773730469 9.45790255859379  C 24.1778773730469 9.45790255859379  25.6863046484375 11.9102998437501  23.4368697851562 17.4749469921875  Z M 16.4488776464843 23.8142989062501  L 11.2996888085938 18  L 22.8137722460937 18  C 22.8137722460937 18.4914078124999  21.4237946386719 22.2588335058595  16.4488776464843 23.8142989062501  Z M 15.6527674414063 24.0826169726563  L 7.54110713867186 15.9481121679687  L 7.54110713867186 23.45337359375  C 7.54110713867186 23.45337359375  10.5314896484375 25.3683852148438  15.6527674414063 24.0826169726563  Z M 7 23.0038883691407  C 6.71225908203127 23.0038583984375  3.18865809570312 21.7807476464844  0.879983369140632 16.3363189648438  L 7 11.1033069628905  L 7 23.0038883691407  Z M 9.28586418945309 7.45574002929686  L 0.732183593749994 15.4993164746094  C 0.732183593749994 15.4993164746094  -0.60194186523438 11.1945650878907  1.26405297851562 7.45574002929686  L 9.28586418945309 7.45574002929686  Z M 13.5191140332032 7  L 1.76804125976565 7  C 1.76804125976565 6.61669888671875  3.45562707031249 2.79069291992187  8.04371635742186 0.995510058593823  L 13.5191140332032 7  Z " fill-rule="nonzero" fill="#096dd9" stroke="none" transform="matrix(1 0 0 1 206 762 )" />
  </g>
</svg>