<?xml version="1.0" encoding="utf-8"?>
<svg version="1.1" xmlns:xlink="http://www.w3.org/1999/xlink" width="25px" height="25px" xmlns="http://www.w3.org/2000/svg">
  <g transform="matrix(1 0 0 1 -300 -761 )">
    <path d="M 0 17.5235704881032  C 0 14.9978986410232  1.15732236020284 12.857965766952  3.47196708060847 11.1037718658891  C 3.39848629583361 10.9292709019092  3.36174590344626 10.6904801090943  3.36174590344626 10.3873994874448  C 3.36174590344626 10.2037142622026  3.41226394297894 9.97869986128092  3.51330002204423 9.71235628467971  C 3.61433610110959 9.44601270807871  3.72455727827173 9.23936682968122  3.84396355353078 9.0924186494874  C 3.83477845543388 8.89036490172103  3.86922257329707 8.64698197827516  3.94729590712029 8.36226987914981  C 4.02536924094352 8.07755778002442  4.12870159453303 7.8800961628892  4.25729296788887 7.76988502774392  C 4.25729296788887 6.49327271231073  4.68210375486808 5.16844302525161  5.5317253288265 3.79539596656636  C 6.38134690278491 2.42234890788112  7.38022632081709 1.46029754067521  8.52836358292308 0.909241864948825  C 9.80509221838486 0.303080621649542  11.2930781100742 0  12.992321257991 0  C 14.2139393048718 0  15.4355573517525 0.252567184707971  16.6571753986333 0.757701554123884  C 17.1072452053788 0.950571040628148  17.5205746197369 1.17099331091887  17.8971636417077 1.41896836499569  C 18.2737526636784 1.66694341907271  18.5998236461165 1.9241027344118  18.875376589022 2.19044631101281  C 19.1509295319274 2.45678988761398  19.4035197295907 2.7690547705258  19.6331471820119 3.12724095974789  C 19.8627746344331 3.48542714897019  20.0556616944669 3.82524481566827  20.2118083621133 4.14669395984203  C 20.3679550297597 4.46814310401575  20.5172128738335 4.85617814233996  20.6595818943346 5.31079907481427  C 20.8019509148358 5.76542000728861  20.9190609155706 6.17641569876795  21.010911896539 6.54378614925233  C 21.1027628775075 6.9111565997367  21.2037989565728 7.36118540158006  21.314020133735 7.89387255478223  L 21.3277977808803 7.96275451424822  C 21.8329781762069 8.72504819900323  22.0855683738702 9.41386779366132  22.0855683738702 10.0292132982225  C 22.0855683738702 10.1577929558921  22.0442354324344 10.3414781811341  21.9615695495628 10.580268973949  C 21.8789036666911 10.819059766764  21.8375707252554 10.9935607307439  21.8375707252554 11.1037718658891  C 21.8375707252554 11.1129561271514  21.844459548828 11.12902858436  21.8582371959732 11.1519892375153  C 21.8720148431185 11.1749498906706  21.888088764788 11.1979105438259  21.9064589609817 11.2208711969811  C 21.9248291571754 11.2438318501364  21.9340142552722 11.2599043073451  21.9340142552722 11.2690885686071  C 22.6412668087295 12.3160943524875  23.1946689690645 13.3011063728488  23.5942207362775 14.2241246296906  C 23.9937725034903 15.1471428865325  24.1935483870968 16.1046021231073  24.1935483870968 17.0965023394151  C 24.1935483870968 17.4914255736857  24.1039936806525 17.9506386367912  23.924884267764 18.4741415287313  C 23.7457748548754 18.9976444206716  23.4908883826879 19.2593958666416  23.1602248512014 19.2593958666416  C 23.0775589683298 19.2593958666416  22.9880042618855 19.2249548869087  22.8915607318687 19.156072927443  C 22.7951172018517 19.087190967977  22.7078587699316 19.0068286819337  22.6297854361084 18.9149860693126  C 22.5517121022853 18.8231434566915  22.4644536703652 18.7037480602841  22.3680101403483 18.5567998800903  C 22.2715666103314 18.4098516998967  22.1980858255566 18.2881602381736  22.147567786024 18.1917254949216  C 22.0970497464913 18.0952907516694  22.0350503343376 17.975895355262  21.9615695495628 17.8335393056993  C 21.888088764788 17.6911832561366  21.8467558233522 17.6108209700931  21.8375707252554 17.5924524475689  C 21.8283856271585 17.5832681863068  21.8146079800132 17.5786760556757  21.7962377838195 17.5786760556757  L 21.7273495480932 17.6337816232484  C 21.1854287603791 19.0481578576132  20.5792122859872 20.0722029883382  19.9087001249173 20.7059170154238  C 20.0924020868543 20.889602240666  20.3748438533323 21.0663992699616  20.7560254243515 21.2363081033105  C 21.1372069953707 21.4062169366595  21.4540928797119 21.5967903578482  21.7066830773753 21.8080283668767  C 21.9592732750386 22.0192663759052  22.1223087662576 22.3177548669238  22.1957895510324 22.7034938399323  C 22.1774193548387 22.7402308849809  22.159049158645 22.8137049750776  22.1406789624513 22.9239161102229  C 22.1223087662576 23.0341272453683  22.0901609229186 23.1167855967273  22.0442354324344 23.1718911642999  C 21.4563891542361 24.0627645067243  20.0694393416122 24.5082011779368  17.8833859945624 24.5082011779368  C 17.3965757954295 24.5082011779368  16.8890991255787 24.4668720022572  16.3609559850099 24.3842136508983  C 15.8328128444411 24.3015552995392  15.3827430376957 24.2097126869182  15.0107465647733 24.108685813035  C 14.638750091851 24.0076589391518  14.1588287162907 23.8698950202201  13.5709824380924 23.6953940562402  C 13.4332059666397 23.6494727499295  13.327577338526 23.6173278355121  13.2540965537512 23.5989593129879  C 13.1255051803953 23.5622222679395  12.9142479241678 23.5415576800997  12.6203247850687 23.5369655494688  C 12.3264016459696 23.5323734188376  12.1426996840326 23.525485222891  12.0692188992579 23.5163009616289  C 11.6926298772871 23.9295927184239  11.107079873613 24.2280812094423  10.3125688882357 24.4117664346845  C 9.5180579028584 24.5954516599267  8.74421338819894 24.6872942725478  7.99103534425745 24.6872942725478  C 7.66955691086781 24.6872942725478  7.35267102652659 24.6804060766012  7.04037769123374 24.6666296847081  C 6.72808435594089 24.6528532928149  6.30097729443747 24.6115241171354  5.75905650672348 24.5426421576696  C 5.21713571900949 24.4737601982039  4.75328826511867 24.3796215202671  4.36751414505108 24.2602261238598  C 3.98174002498342 24.1408307274524  3.63959512087592 23.9571455022102  3.34107943272835 23.7091704481332  C 3.04256374458078 23.4611953940564  2.89330590050702 23.1672990336689  2.89330590050702 22.8274813669708  C 2.89330590050702 22.4601109164865  2.93923139099127 22.1868791439388  3.03108237195971 22.0077860493276  C 3.12293335292821 21.8286929547166  3.31122786391359 21.6059746191104  3.59596590491583 21.3396310425092  C 3.69700198398118 21.321262519985  3.8830002204424 21.2615648217813  4.15396061429936 21.1605379478981  C 4.42492100815633 21.0595110740149  4.65225218605337 21.0044055064422  4.83595414799026 20.9952212451801  C 4.87269454037772 20.9952212451801  4.93699022705562 20.986036983918  5.02884120802406 20.9676684613938  C 5.04721140421782 20.9492999388697  5.05639650231461 20.9309314163455  5.05639650231461 20.9125628938211  L 5.02884120802406 20.8712337181416  C 4.58795649937542 20.7702068442584  4.09196120214563 20.2857370626824  3.54085531633478 19.417824373413  C 2.98974943052394 18.5499116841437  2.65449334998897 17.8312432403839  2.53508707472997 17.2618190421331  L 2.4661988390036 17.2204898664536  C 2.4294584466162 17.2204898664536  2.37434785803515 17.3123324790747  2.30086707326035 17.4960177043169  C 2.1355353075171 17.8725724160633  1.88524138437799 18.2146861480767  1.54998530384307 18.5223589003574  C 1.2147292233081 18.8300316526381  0.858806672055266 19.0022365513025  0.482217650084522 19.0389735963511  L 0.468440002939246 19.0389735963511  C 0.431699610551846 19.0389735963511  0.404144316261295 19.0183090085112  0.385774120067595 18.9769798328317  C 0.367403923873894 18.9356506571523  0.344441178631769 18.9103939386814  0.316885884341275 18.9012096774194  C 0.105628628113777 18.4052595692655  0 17.9460465061601  0 17.5235704881032  Z " fill-rule="nonzero" fill="#096dd9" stroke="none" transform="matrix(1 0 0 1 300 761 )" />
  </g>
</svg>