<?xml version="1.0" encoding="utf-8"?>
<svg version="1.1" xmlns:xlink="http://www.w3.org/1999/xlink" width="25px" height="25px" xmlns="http://www.w3.org/2000/svg">
  <g transform="matrix(1 0 0 1 -395 -761 )">
    <path d="M 24.9757864634146 12.5000883658536  C 24.9757864878049 5.60323160975616  19.3846612682927 0.0121951219512084  12.4878045121951 0.0121951219512084  C 5.59103648780489 0.0121951219512084  0 5.60323160975616  0 12.5000883658536  C 0 19.3968563902439  5.59103648780489 24.9878041463415  12.4878045121951 24.9878041463415  C 19.3846612682927 24.9878041463415  24.9757864634146 19.3968563902439  24.9757864634146 12.5000883658536  Z M 16.4505138292683 13.6006043414635  L 17.3309976097561 18.4438861951219  C 17.3309976097561 18.8840393658537  17.3309976097561 18.8840393658537  16.890667 18.8840393658537  L 12.6547805609756 16.1904190975611  L 8.52536134146344 18.8840393658537  C 8.08511946341459 18.8840393658537  8.11856790243904 18.8840393658537  8.11856790243904 18.5952470731706  L 8.52536134146344 13.6006043658536  L 5.25451141463417 10.5799523414635  L 5.25451141463417 10.5072884634147  L 10.2675197073171 10.5072884634147  L 12.4878932439024 6.11587119512194  L 12.9035589512195 6.11587119512194  L 15.1296107317073 10.5072884634147  L 19.5609531951219 10.5072884634147  C 19.7212750487805 10.5072884634147  19.7212750487805 10.4627496829268  19.7212750487805 10.6230715365854  L 16.4505138292683 13.6006043414635  Z " fill-rule="nonzero" fill="#096dd9" stroke="none" transform="matrix(1 0 0 1 395 761 )" />
  </g>
</svg>