<?xml version="1.0" encoding="utf-8"?>
<svg version="1.1" xmlns:xlink="http://www.w3.org/1999/xlink" width="7px" height="11px" xmlns="http://www.w3.org/2000/svg">
  <g transform="matrix(1 0 0 1 -876 -192 )">
    <path d="M 0.874999999999998 0.154  C 0.408333333333332 -0.055  -0.0933333333333347 0.374  0.081666666666667 0.836000000000001  C 0.14 0.968000000000001  0.244999999999999 1.089  0.385 1.144  L 1.575 1.661  C 1.86666666666667 1.793  1.995 2.112  1.855 2.387  L 1.295 3.52  C 1.225 3.652  1.225 3.806  1.27166666666667 3.938  C 1.44666666666667 4.4  2.12333333333333 4.422  2.345 3.982  L 3.395 1.87  C 3.535 1.595  3.40666666666667 1.265  3.115 1.144  L 0.874999999999998 0.154  Z M 6.11333333333333 10.857  C 6.59166666666666 11.055  7.09333333333333 10.626  6.91833333333333 10.164  C 6.86 10.032  6.755 9.911  6.615 9.856  L 5.425 9.339  C 5.13333333333333 9.207  5.005 8.888  5.145 8.613  L 5.69333333333333 7.491  C 5.76333333333333 7.359  5.76333333333333 7.205  5.71666666666666 7.073  C 5.54166666666667 6.611  4.865 6.589  4.64333333333333 7.029  L 3.59333333333333 9.141  C 3.45333333333333 9.416  3.58166666666666 9.746  3.87333333333333 9.867  L 6.11333333333333 10.857  Z " fill-rule="nonzero" fill="#ffffff" stroke="none" transform="matrix(1 0 0 1 876 192 )" />
  </g>
</svg>