<?xml version="1.0" encoding="utf-8"?>
<svg version="1.1" xmlns:xlink="http://www.w3.org/1999/xlink" width="7px" height="7px" xmlns="http://www.w3.org/2000/svg">
  <g transform="matrix(1 0 0 1 -325 -712 )">
    <path d="M 6.96354167236328 3.5  C 6.96153218537629 5.41202827072134  5.41202827072134 6.96153218537629  3.5 6.96354167236328  C 1.58713875395032 6.96354167236328  0.0364583276367197 5.41286124604968  0.0364583276367197 3.5  C 0.0364583276367197 1.58713875395032  1.58713875395032 0.0364583276367197  3.5 0.0364583276367197  C 5.41286124604968 0.0364583276367197  6.96354167236328 1.58713875395032  6.96354167236328 3.5  Z M 6.59895832763672 3.5  C 6.59694930628826 1.78932543022696  5.21067456977304 0.403050693711744  3.5 0.40104167236328  C 1.7884925752851 0.401041672363282  0.401041672363284 1.7884925752851  0.401041672363284 3.5  C 0.401041672363284 5.2115074247149  1.7884925752851 6.59895832763672  3.5 6.59895832763672  C 5.2115074247149 6.59895832763672  6.59895832763672 5.2115074247149  6.59895832763672 3.5  Z " fill-rule="nonzero" fill="#ffffff" stroke="none" transform="matrix(1 0 0 1 325 712 )" />
  </g>
</svg>