<?xml version="1.0" encoding="utf-8"?>
<svg version="1.1" xmlns:xlink="http://www.w3.org/1999/xlink" width="35px" height="35px" xmlns="http://www.w3.org/2000/svg">
  <g transform="matrix(1 0 0 1 -399 -661 )">
    <path d="M 21.875 22.6041666666666  C 22.2699652777778 22.6041666666666  22.6117621527778 22.4598524305557  22.900390625 22.1712239583334  L 30.9212239583333 14.150390625  C 31.2098524305555 13.8617621527778  31.3541666666667 13.5199652777778  31.3541666666667 13.125  C 31.3541666666667 12.7300347222222  31.2098524305555 12.3882378472222  30.9212239583333 12.099609375  L 22.900390625 4.07877604166663  C 22.4446614583333 3.60785590277783  21.9205729166667 3.50151909722217  21.328125 3.759765625  C 20.7204861111111 4.01801215277783  20.4166666666667 4.46614583333337  20.4166666666667 5.10416666666663  L 20.4166666666667 8.75  C 18.6089409722222 8.75  16.9683159722222 8.89811197916663  15.4947916666667 9.1943359375  C 14.0212673611111 9.49055989583337  12.7870008680555 9.8779296875  11.7919921875 10.3564453125  C 10.7969835069445 10.8349609375  9.93109809027783 11.4350043402778  9.1943359375 12.1565755208334  C 8.45757378472217 12.8781467013889  7.87651909722217 13.603515625  7.451171875 14.3326822916666  C 7.02582465277783 15.0618489583334  6.68782552083331 15.8897569444443  6.43717447916669 16.81640625  C 6.1865234375 17.7430555555557  6.02322048611109 18.5899522569443  5.947265625 19.3570963541666  C 5.87131076388891 20.1242404513889  5.83333333333331 20.9635416666666  5.83333333333331 21.875  C 5.83333333333331 24.6245659722222  7.10177951388891 27.6931423611111  9.638671875 31.0807291666666  C 9.80577256944446 31.2630208333334  9.99565972222217 31.3541666666666  10.2083333333333 31.3541666666666  C 10.3146701388889 31.3541666666666  10.4134114583333 31.3313802083334  10.5045572916667 31.2858072916666  C 10.8387586805555 31.1490885416666  10.9830729166667 30.8984375  10.9375 30.5338541666666  C 10.2690972222222 25.15625  10.7400173611111 21.5635850694443  12.3502604166667 19.755859375  C 13.0490451388889 18.9659288194443  14.0364583333333 18.3924696180557  15.3125 18.0354817708334  C 16.5885416666667 17.6784939236111  18.2899305555555 17.5  20.4166666666667 17.5  L 20.4166666666667 21.1458333333334  C 20.4166666666667 21.7838541666666  20.7204861111111 22.2319878472222  21.328125 22.490234375  C 21.5104166666667 22.5661892361111  21.6927083333333 22.6041666666666  21.875 22.6041666666666  Z M 33.0745442708333 1.92545572916663  C 34.3581814236111 3.20909288194434  35 4.75477430555566  35 6.5625  L 35 28.4375  C 35 30.2452256944443  34.3581814236111 31.7909071180557  33.0745442708333 33.0745442708334  C 31.7909071180555 34.3581814236111  30.2452256944445 35  28.4375 35  L 6.5625 35  C 4.75477430555554 35  3.20909288194446 34.3581814236111  1.92545572916669 33.0745442708334  C 0.641818576388914 31.7909071180557  0 30.2452256944443  0 28.4375  L 0 6.5625  C 0 4.75477430555566  0.641818576388914 3.20909288194434  1.92545572916669 1.92545572916663  C 3.20909288194446 0.641818576388914  4.75477430555554 0  6.5625 0  L 28.4375 0  C 30.2452256944445 0  31.7909071180555 0.641818576388914  33.0745442708333 1.92545572916663  Z " fill-rule="nonzero" fill="#ffffff" stroke="none" transform="matrix(1 0 0 1 399 661 )" />
  </g>
</svg>