<?xml version="1.0" encoding="utf-8"?>
<svg version="1.1" xmlns:xlink="http://www.w3.org/1999/xlink" width="17px" height="19px" xmlns="http://www.w3.org/2000/svg">
  <g transform="matrix(1 0 0 1 -137 -740 )">
    <path d="M 16.9103747814685 9.27963445216049  C 16.9126966783217 4.20114776234568  13.1280048076923 0.068721064814815  8.47724541083916 0.0687210648148148  C 3.82648601398601 0.0687210648148148  0.0441160402097911 4.19885706018519  0.0441160402097911 9.27734375  C 0.0441160402097911 14.4474585262346  5.30089051573427 18.9853395061728  8.47724541083916 18.9853395061728  C 10.29296875 18.9853395061728  12.3919635052448 17.8766396604938  14.0915920017483 16.0211709104938  C 15.8840963723776 14.0649112654321  16.9103747814685 11.6069878472222  16.9103747814685 9.27963445216049  Z M 15.9026715472028 9.27963445216049  C 15.9026715472028 13.002025462963  12.2317526223776 17.9911747685185  8.47724541083916 17.9911747685185  C 7.14679851398601 17.9911747685185  5.30321241258741 16.9534866898148  3.77772618006993 15.3477044753086  C 2.04559112762238 13.5220148533951  1.05181927447553 11.3114872685185  1.05181927447553 9.27963445216049  C 1.05181927447553 4.7509162808642  4.38374125874126 1.06517650462963  8.47724541083916 1.06517650462963  C 12.5707495629371 1.06517650462963  15.9026715472028 4.7509162808642  15.9026715472028 9.27963445216049  Z " fill-rule="nonzero" fill="#ffffff" stroke="none" transform="matrix(1 0 0 1 137 740 )" />
  </g>
</svg>