<?xml version="1.0" encoding="utf-8"?>
<svg version="1.1" xmlns:xlink="http://www.w3.org/1999/xlink" width="18px" height="18px" xmlns="http://www.w3.org/2000/svg">
  <g transform="matrix(1 0 0 1 -386 -621 )">
    <path d="M 17.863330078125 9  C 17.863330078125 4.115478515625  13.8864990234375 0.1386474609375  9.0019775390625 0.1386474609375  C 4.115478515625 0.1386474609375  0.140625 4.115478515625  0.140625 9  C 0.140625 13.8864990234375  4.115478515625 17.8613525390625  9.0019775390625 17.8613525390625  C 13.8884765625 17.8613525390625  17.863330078125 13.8864990234375  17.863330078125 9  Z M 15.9708251953125 9  C 15.9708251953125 12.8423583984375  12.8443359375 15.96884765625  9.0019775390625 15.96884765625  C 5.159619140625 15.96884765625  2.0331298828125 12.8423583984375  2.0331298828125 9  C 2.0331298828125 5.1576416015625  5.159619140625 2.03115234375  9.0019775390625 2.03115234375  C 12.8443359375 2.03115234375  15.9708251953125 5.1576416015625  15.9708251953125 9  Z M 5.5689697265625 6.8939208984375  C 5.570947265625 7.619677734375  6.1582763671875 8.2070068359375  6.8820556640625 8.2070068359375  C 7.6078125 8.2070068359375  8.1951416015625 7.619677734375  8.1951416015625 6.8939208984375  C 8.1951416015625 6.1681640625  7.6078125 5.5808349609375  6.8820556640625 5.5808349609375  C 6.156298828125 5.5808349609375  5.5689697265625 6.1681640625  5.5689697265625 6.8939208984375  Z M 9.8068359375 6.8939208984375  C 9.8088134765625 7.619677734375  10.396142578125 8.2070068359375  11.119921875 8.2070068359375  C 11.8456787109375 8.2070068359375  12.4330078125 7.619677734375  12.4330078125 6.8939208984375  C 12.4330078125 6.1681640625  11.8456787109375 5.5808349609375  11.119921875 5.5808349609375  C 10.3941650390625 5.5808349609375  9.8068359375 6.1681640625  9.8068359375 6.8939208984375  Z M 13.3367431640625 10.9399658203125  C 13.4909912109375 10.4416259765625  13.2101806640625 9.9116455078125  12.7118408203125 9.7573974609375  C 12.2095458984375 9.601171875  11.6835205078125 9.8839599609375  11.5292724609375 10.3822998046875  C 11.1851806640625 11.4976318359375  10.166748046875 12.247119140625  8.9980224609375 12.247119140625  C 7.83720703125 12.247119140625  6.8227294921875 11.503564453125  6.472705078125 10.3981201171875  C 6.3164794921875 9.8997802734375  5.78056640625 9.6229248046875  5.286181640625 9.78310546875  C 4.787841796875 9.94130859375  4.5129638671875 10.4732666015625  4.669189453125 10.9716064453125  C 5.270361328125 12.86806640625  7.010595703125 14.1396240234375  8.9980224609375 14.1396240234375  C 11.0032470703125 14.1396240234375  12.7474365234375 12.8542236328125  13.3367431640625 10.9399658203125  Z " fill-rule="nonzero" fill="#aaaaaa" stroke="none" transform="matrix(1 0 0 1 386 621 )" />
  </g>
</svg>