<?xml version="1.0" encoding="utf-8"?>
<svg version="1.1" xmlns:xlink="http://www.w3.org/1999/xlink" width="14px" height="20px" xmlns="http://www.w3.org/2000/svg">
  <g transform="matrix(1 0 0 1 -65 -740 )">
    <path d="M 11.2827995867769 15.543695494186  C 11.2805397727273 17.985101744186  9.30546229338843 19.9700218023256  6.87842200413223 19.9700218023256  C 4.45138171487603 19.9700218023256  2.4740444214876 17.985101744186  2.4740444214876 15.543695494186  L 2.4740444214876 11.0038154069767  C 2.4740444214876 10.4292332848837  2.93956611570248 9.96139171511628  3.51129907024793 9.96139171511628  L 10.2455449380165 9.96139171511628  C 10.817277892562 9.96139171511628  11.2827995867769 10.4292332848837  11.2827995867769 11.0038154069767  L 11.2827995867769 15.543695494186  Z M 10.2455449380165 11.0038154069767  L 3.51129907024793 11.0038154069767  L 3.51129907024793 15.543695494186  C 3.51129907024793 17.410519622093  5.0208548553719 18.9275981104651  6.87842200413223 18.9275981104651  C 8.73598915289256 18.9275981104651  10.2455449380165 17.410519622093  10.2455449380165 15.543695494186  L 10.2455449380165 11.0038154069767  Z M 11.4251678719008 8.41933139534884  C 11.2353434917355 8.76453488372093  10.8760330578512 8.98028706395349  10.4896048553719 8.98028706395349  L 3.52033832644628 8.98028706395349  C 3.13391012396694 8.98028706395349  2.77459969008264 8.76453488372093  2.58477530991736 8.41933139534884  L 0.150955578512398 3.99073401162791  C -0.102143595041321 3.52743459302326  0.00180785123967024 2.94603924418605  0.399535123966943 2.60764898255814  L 0.557722107438017 2.47365552325581  C 4.37906766528926 -0.787609011627907  9.87719524793388 -0.728561046511628  13.6307463842975 2.61219113372093  C 14.0126549586777 2.95285247093023  14.1098269628099 3.52743459302326  13.8612474173554 3.97937863372093  L 11.4251678719008 8.41933139534884  Z M 12.9641012396694 3.39571220930232  C 11.2511621900826 1.87409156976744  9.13371642561983 1.10873909883721  7.01401084710744 1.10873909883721  C 4.95758006198347 1.10873909883721  2.9011492768595 1.82867005813953  1.20854855371901 3.27080305232558  L 1.05036157024793 3.40479651162791  C 1.03002324380165 3.42296511627907  1.02324380165289 3.45248909883721  1.03680268595041 3.47747093023256  L 3.47062241735537 7.90606831395349  C 3.47966167355372 7.92423691860465  3.5 7.93559229651163  3.52033832644628 7.93559229651163  L 10.4873450413223 7.93559229651163  C 10.5076833677686 7.93559229651163  10.5257618801653 7.92423691860465  10.5370609504132 7.90606831395349  L 12.9754003099174 3.46838662790698  C 12.9889591942149 3.44567587209302  12.9844395661157 3.41388081395349  12.9641012396694 3.39571220930232  Z " fill-rule="nonzero" fill="#ffffff" stroke="none" transform="matrix(1 0 0 1 65 740 )" />
  </g>
</svg>