<?xml version="1.0" encoding="utf-8"?>
<svg version="1.1" xmlns:xlink="http://www.w3.org/1999/xlink" width="12px" height="15px" xmlns="http://www.w3.org/2000/svg">
  <g transform="matrix(1 0 0 1 -98 -811 )">
    <path d="M 5.90553191489369 9.57173252493351  C 5.90553191489369 9.57173252493351  3.59999999999991 8.77787234042552  1.91489361702122 9.90164133311168  C 0.229787234042533 11.0259574468085  -0.188753801529288 12.7690577443484  0.803708213098389 13.9743465109707  C 1.7961702127659 15.1801823836436  3.7947720428856 15.2797568517287  5.40054710605057 14.1001823686835  C 7.00577506316483 12.9200607945479  7.16389056682181 11.5101519714095  7.16389058178186 10.1686322124335  C 7.16389059674202 8.82711245345746  7.18686930518618 4.76808510638296  7.16389058178186 4.75057750332445  C 8.78881459607715 5.44814588597075  11.1742249218751 6.0045592619681  11.0029787234042 9.24237082280587  C 11.0029787234042 9.24237082280587  12.1125227942155 6.13422492187499  9.26699087932184 4.2866261419548  C 6.98936170212767 2.78917933344417  6.02206686502666 1.00121580119679  5.94765957446805 0  L 5.90553191489369 9.57173252493351  Z " fill-rule="nonzero" fill="#ffffff" stroke="none" transform="matrix(1 0 0 1 98 811 )" />
  </g>
</svg>