<?xml version="1.0" encoding="utf-8"?>
<svg version="1.1" xmlns:xlink="http://www.w3.org/1999/xlink" width="20px" height="16px" xmlns="http://www.w3.org/2000/svg">
  <g transform="matrix(1 0 0 1 -869 -253 )">
    <path d="M 11.2900040816327 5.07918367346938  L 10.0483714285714 9.79714285714285  C 8.81580483984732 9.83781937034841  7.83765333808543 10.8487838187478  7.83765333808543 12.0820214172525  C 7.83765333808543 13.3446119820697  8.86118522224778 14.3681438662321  10.123775787065 14.3681438662321  C 11.3863663518823 14.3681438662321  12.4098982360446 13.3446119820697  12.4098982360446 12.0820214172525  C 12.4098982360446 11.2840159444522  11.9937835624762 10.543762821876  11.3120448979592 10.1289795918367  L 12.5536775510204 5.41224489795919  L 11.2900040816327 5.07918367346938  Z M 17.6340857142857 15.6734693877551  L 1.95939183673469 15.6734693877551  C 0.688050955658639 13.9779802714905  0.000820408163273593 11.9159306156232  0.000820408163273593 9.79673478246696  C 0.000820408163273593 4.38659845759387  4.38660245063712 0.000816415120008666  9.7967387755102 0.000816415120008666  C 15.2068751003833 0.000816415120008666  19.5926571428571 4.38659845759387  19.5926571428571 9.79673478246696  C 19.5926571428571 11.9159306156232  18.9054265953618 13.9779802714905  17.6340857142857 15.6734693877551  Z M 2.94020816326531 11.7551020408163  C 3.84201026191759 11.7551020408163  4.57306530612245 11.0240469966115  4.57306530612245 10.1222448979592  C 4.57306530612245 9.22044279930691  3.84201026191759 8.48938775510205  2.94020816326531 8.48938775510205  C 2.03840606461303 8.48938775510205  1.30735102040817 9.22044279930691  1.30735102040817 10.1222448979592  C 1.30735102040817 11.0240469966115  2.03840606461303 11.7551020408163  2.94020816326531 11.7551020408163  Z M 4.89816738133576 6.53020408163265  C 5.79963134646774 6.53020408163265  6.53041227929494 5.79942314880545  6.53041227929494 4.89795918367347  C 6.53041227929494 3.9964952185415  5.79963134646774 3.26571428571428  4.89816738133576 3.26571428571428  C 3.99670341620379 3.26571428571428  3.26592248337658 3.9964952185415  3.26592248337658 4.89795918367347  C 3.26592248337658 5.79942314880545  3.99670341620379 6.53020408163265  4.89816738133576 6.53020408163265  Z M 10.1230653061224 4.57102040816327  C 11.0245292712544 4.57102040816327  11.7553102040816 3.84023947533605  11.7553102040816 2.93877551020408  C 11.7553102040816 2.0373115450721  11.0245292712544 1.3065306122449  10.1230653061224 1.3065306122449  C 9.22160134099047 1.3065306122449  8.49082040816326 2.0373115450721  8.49082040816326 2.93877551020408  C 8.49082040816326 3.84023947533605  9.22160134099047 4.57102040816327  10.1230653061224 4.57102040816327  Z M 14.6940857486827 6.53020408163265  C 15.5955497138147 6.53020408163265  16.3263306466419 5.79942314880545  16.3263306466419 4.89795918367347  C 16.3263306466419 3.9964952185415  15.5955497138147 3.26571428571428  14.6940857486827 3.26571428571428  C 13.7926217835507 3.26571428571428  13.0618408507235 3.9964952185415  13.0618408507235 4.89795918367347  C 13.0618408507235 5.79942314880545  13.7926217835507 6.53020408163265  14.6940857486827 6.53020408163265  Z M 16.6532693877551 11.7551020408163  C 17.5550714864074 11.7551020408163  18.2861265306123 11.0240469966115  18.2861265306123 10.1222448979592  C 18.2861265306123 9.22044279930691  17.5550714864074 8.48938775510205  16.6532693877551 8.48938775510205  C 15.7514672891028 8.48938775510205  15.020412244898 9.22044279930691  15.020412244898 10.1222448979592  C 15.020412244898 11.0240469966115  15.7514672891028 11.7551020408163  16.6532693877551 11.7551020408163  Z " fill-rule="nonzero" fill="#ffffff" stroke="none" transform="matrix(1 0 0 1 869 253 )" />
  </g>
</svg>