<?xml version="1.0" encoding="utf-8"?>
<svg version="1.1" xmlns:xlink="http://www.w3.org/1999/xlink" width="19px" height="18px" xmlns="http://www.w3.org/2000/svg">
  <g transform="matrix(1 0 0 1 -198 -761 )">
    <path d="M 5.19915803108808 1.16733870967742  L 4.33775906735751 2  L 16.2742875647668 2  C 17.4125647668394 2.01411290322581  18.181670984456 2.52822580645161  18.6123704663212 3.375  C 18.8277202072539 3.82862903225806  18.9200129533679 4.3125  18.9200129533679 4.64516129032258  L 18.8892487046632 4.82661290322581  L 16.9203367875648 11.6310483870968  C 16.8280440414508 11.9939516129032  16.4588730569948 12.1754032258065  16.0897020725389 12.0846774193548  C 15.7205310880829 11.9939516129032  15.5359455958549 11.6310483870968  15.6282383419689 11.2681451612903  L 17.5971502590674 4.46370967741936  L 17.5663860103627 4.64516129032258  C 17.5663860103627 4.49395161290323  17.535621761658 4.22177419354839  17.4125647668394 3.97983870967742  C 17.2279792746114 3.5866935483871  16.8895725388601 3.375  16.3050518134715 3.375  L 4.24546632124352 3.375  L 5.19915803108808 4.3125  C 5.47603626943005 4.58467741935484  5.47603626943005 5.00806451612903  5.19915803108808 5.25  C 4.92227979274611 5.52217741935484  4.49158031088083 5.52217741935484  4.24546632124352 5.25  L 2.18426165803109 3.22379032258065  C 1.90738341968912 2.95161290322581  1.90738341968912 2.52822580645161  2.18426165803109 2.28629032258065  L 4.24546632124352 0.229838709677419  C 4.52234455958549 -0.0423387096774194  4.95304404145078 -0.0423387096774194  5.19915803108808 0.229838709677419  C 5.47603626943005 0.502016129032258  5.47603626943005 0.925403225806452  5.19915803108808 1.16733870967742  Z M 3.13795336787565 3.1633064516129  C 3.13795336787565 3.19354838709677  3.16871761658031 3.19354838709677  3.13795336787565 3.1633064516129  Z M 13.7208549222798 16.8326612903226  L 14.5822538860104 16  L 2.64572538860104 16  C 1.5074481865285 15.9858870967742  0.738341968911917 15.4717741935484  0.307642487046632 14.625  C 0.0922927461139896 14.1713709677419  0 13.6875  0 13.3548387096774  L 0.0307642487046632 13.1733870967742  L 1.99967616580311 6.36895161290322  C 2.0919689119171 6.00604838709677  2.46113989637306 5.82459677419355  2.83031088082902 5.91532258064516  C 3.19948186528497 6.00604838709677  3.38406735751295 6.36895161290322  3.29177461139896 6.73185483870968  L 1.35362694300518 13.5362903225806  L 1.38439119170984 13.3548387096774  C 1.38439119170984 13.5060483870968  1.41515544041451 13.7782258064516  1.53821243523316 14.0201612903226  C 1.72279792746114 14.4133064516129  2.06120466321243 14.625  2.64572538860104 14.625  L 14.705310880829 14.625  L 13.7516191709845 13.6875  C 13.4747409326425 13.4153225806452  13.4747409326425 12.991935483871  13.7516191709845 12.75  C 14.0284974093264 12.4778225806452  14.4591968911917 12.4778225806452  14.705310880829 12.75  L 16.7665155440415 14.7762096774194  C 17.0433937823834 15.0483870967742  17.0433937823834 15.4717741935484  16.7665155440415 15.7137096774194  L 14.6745466321244 17.7701612903226  C 14.3976683937824 18.0423387096774  13.9669689119171 18.0423387096774  13.7208549222798 17.7701612903226  C 13.4439766839378 17.4979838709677  13.4439766839378 17.0745967741935  13.7208549222798 16.8326612903226  Z M 15.8128238341969 14.8064516129032  L 15.8128238341969 14.8366935483871  C 15.8128238341969 14.8064516129032  15.7820595854922 14.8064516129032  15.8128238341969 14.8366935483871  L 15.8128238341969 14.8064516129032  Z M 7.01424870466321 7.72983870967742  L 13.8746761658031 7.72983870967742  C 14.2438471502591 7.72983870967742  14.5514896373057 7.42741935483871  14.5514896373057 7.06451612903226  C 14.5514896373057 6.70161290322581  14.2438471502591 6.3991935483871  13.8746761658031 6.3991935483871  L 7.01424870466321 6.3991935483871  C 6.64507772020725 6.3991935483871  6.33743523316062 6.70161290322581  6.33743523316062 7.06451612903226  C 6.33743523316062 7.42741935483871  6.64507772020725 7.72983870967742  7.01424870466321 7.72983870967742  Z M 5.07610103626943 11.6008064516129  L 11.9057642487047 11.6008064516129  C 12.2749352331606 11.6008064516129  12.5825777202073 11.2983870967742  12.5825777202073 10.9354838709677  C 12.5825777202073 10.5725806451613  12.2749352331606 10.2701612903226  11.9057642487047 10.2701612903226  L 5.07610103626943 10.2701612903226  C 4.70693005181347 10.2701612903226  4.39928756476684 10.5725806451613  4.39928756476684 10.9354838709677  C 4.39928756476684 11.2983870967742  4.70693005181347 11.6008064516129  5.07610103626943 11.6008064516129  Z " fill-rule="nonzero" fill="#ffffff" stroke="none" transform="matrix(1 0 0 1 198 761 )" />
  </g>
</svg>