<?xml version="1.0" encoding="utf-8"?>
<svg version="1.1" xmlns:xlink="http://www.w3.org/1999/xlink" width="20px" height="19px" xmlns="http://www.w3.org/2000/svg">
  <g transform="matrix(1 0 0 1 -869 -449 )">
    <path d="M 12.8232458380682 1.47608806475314  C 15.3621208451705 2.29271072639106  17.4041618039773 4.18120012184072  18.4007297585227 6.5978768442643  L 18.7917737286932 6.17766256159384  C 19.9806912855114 4.90225618032425  19.7820841264205 2.82156231583073  18.3471151988636 1.53038531801039  L 17.9132929758523 1.14012664882935  C 16.4789127556818 -0.151050348990993  14.3517731321023 -0.163992547144395  13.1636841122159 1.11139239211893  L 12.8232458380682 1.47608806475314  Z M 1.20855333096589 6.17764116146649  L 1.59879056107953 6.5978768442643  C 2.59448638494318 4.18120012184072  4.63822801136363 2.29273216839733  7.17540235085229 1.47606666462579  L 6.8366429474432 1.11137099199158  C 5.64842310369318 -0.164013947271746  3.5204331463068 -0.151071749118344  2.08550785511363 1.140105248702  L 1.65323365767047 1.53036391788304  C 0.218177542613641 2.82154091570336  0.0188944673295358 4.9022347801969  1.20855333096589 6.17764116146649  Z M 10.7781306036932 5.26978029229525  L 10.7781306036932 10.7043673835472  L 6.39728263494317 10.7043673835472  L 6.39728263494317 9.38758454704643  L 9.43828992897727 9.38758454704643  L 9.43828992897727 5.26978029229525  L 10.7781306036932 5.26978029229525  Z M 17.8971584303977 17.4753220084737  L 16.0604837286932 15.6697569548393  C 17.4929452272727 14.2110599276303  18.3769640482955 12.2286753376029  18.3769640482955 10.0460081073668  C 18.3769640482955 5.57715748273413  14.6783662357955 1.94162149343652  10.131245546875 1.94162149343652  C 5.5839722372159 1.94162149343652  1.88539624289774 5.57715748273413  1.88539624289774 10.0460081073668  C 1.88539624289774 12.2286753376029  2.76943686079547 14.2110599485697  4.20189838068181 15.6697569548393  L 2.36522363636364 17.4753220084737  C 2.10395350852271 17.732944572884  2.10395350852271 18.1480376920063  2.36522363636364 18.4056816984228  C 2.49645829545454 18.5336680287519  2.66805105113637 18.5985504299324  2.83827017755683 18.5985504299324  C 3.00995014204545 18.5985504299324  3.18165190340911 18.5336680287519  3.31277755681818 18.4056816984228  L 5.20771098011365 16.5433338358395  C 6.58282956676135 17.5522680927949  8.28711405539771 18.1503733002302  10.131245546875 18.1503733002302  C 11.9752462144886 18.1503733002302  13.6796397301136 17.5522680927949  15.0546711079545 16.5433338358395  L 16.9495827130682 18.4056816984228  C 17.0808391690341 18.5336680287519  17.2524319247159 18.5985504299324  17.4241336860796 18.5985504299324  C 17.5943528125 18.5985504299324  17.7660545951705 18.5336680287519  17.8971584303977 18.4056816984228  C 18.1584067613636 18.1480376920063  18.1584067613636 17.7329445938235  17.8971584303977 17.4753220084737  Z M 10.1312673650568 16.8334833165165  C 6.32212632812498 16.8334833165165  3.22379789772727 13.7885529207484  3.22379789772727 10.0460081073668  C 3.22379789772727 6.30339900984523  6.32214812500001 3.2583829088705  10.1312673650568 3.2583829088705  C 13.94025578125 3.2583829088705  17.0377992897727 6.30342045185149  17.0377992897727 10.0460081073668  C 17.0377992897727 13.7885529207484  13.9402775994318 16.8334833165165  10.1312673650568 16.8334833165165  Z " fill-rule="nonzero" fill="#ffffff" stroke="none" transform="matrix(1 0 0 1 869 449 )" />
  </g>
</svg>