<?xml version="1.0" encoding="utf-8"?>
<svg version="1.1" xmlns:xlink="http://www.w3.org/1999/xlink" width="25px" height="20px" xmlns="http://www.w3.org/2000/svg">
  <g transform="matrix(1 0 0 1 -111 -844 )">
    <path d="M 8.42778568702849 15.7881143975641  C 8.79929623976281 15.6657785993912  9.08595561687264 15.4505582137161  9.28776381835795 15.1424532405395  C 9.48039891977572 14.8343482673626  9.53085097014707 14.521712338698  9.43911996947193 14.2045454545454  C 9.34738896879679 13.887378570393  9.14099421727769 13.6608307959983  8.81993571491472 13.5249021313615  C 8.50805031261922 13.3980353777004  8.17323216015501 13.3935044222125  7.81548125752195 13.5113092648978  C 7.45773035488889 13.6291141075829  7.18253735286348 13.8375380600261  6.98990225144564 14.136581122227  C 6.78809404996036 14.4446860954038  6.72846889952154 14.7550565463246  6.81102680012918 15.0676924749892  C 6.89358470073679 15.3803284036538  7.09080635218831 15.6091416557924  7.40269175448381 15.7541322314052  C 7.71457715677931 15.8991228070175  8.0562751342942 15.9104501957374  8.42778568702849 15.7881143975641  Z M 10.2784586256494 13.7491844280123  C 10.4160551266622 13.6993439176454  10.5169592274048 13.6155212411194  10.5811709278775 13.4977163984342  C 10.6545557284176 13.3799115557489  10.6706086535357 13.2598412353197  10.6293297032319 13.1375054371466  C 10.588050752928 13.0151696389735  10.5077861273373 12.9313469624475  10.3885358264596 12.8860374075686  C 10.2601124255144 12.8407278526896  10.1293957495523 12.8429933304337  9.99638579857339 12.8928338408004  C 9.86337584759445 12.9426743511671  9.7647650218687 13.0264970276932  9.70055332139603 13.1443018703785  C 9.54461062024834 13.4252211106279  9.60423577068718 13.6291141075829  9.8794287727126 13.7559808612442  C 10.0078521736578 13.8012904161229  10.1408621246368 13.799024938379  10.2784586256494 13.7491844280123  Z M 12.9409509202454 12.3627120487168  C 13.3766731734523 13.1828149920256  13.3881395485367 14.0459620124693  12.9753500454986 14.952153110048  C 12.5625605424605 15.8764680295781  11.8378856371268 16.5561113527622  10.8013253294978 16.9910830795999  C 9.7647650218687 17.4260548064376  8.73737781430711 17.4804262722923  7.71916370681305 17.154197477164  C 6.73764199958904 16.8460925039871  6.0611258696099 16.2729266347687  5.68961531687557 15.4346998695085  C 5.31810476414122 14.5964731042483  5.34791733936069 13.7469189502683  5.77905304253383 12.8860374075686  C 6.210188745707 12.0432796868204  6.90505107582118 11.4134768740032  7.86364003287639 10.996628969117  C 8.82222898993163 10.5797810642308  9.78769777203743 10.4936929099608  10.7600463791939 10.7383645063071  C 11.778260486688 11.0011599246049  12.5052286670385 11.5426091054081  12.9409509202454 12.3627120487168  Z M 15.4452072386767 16.3726076555025  C 16.7890663985675 15.2987712048719  17.3967842780403 14.100333478324  17.2683608770951 12.7772944758592  C 17.1858029764875 11.9073510221835  16.7776000234832 11.1370885892417  16.043752018082 10.4665071770336  C 15.3099040126809 9.79592576482543  14.3536083306425 9.30205161664503  13.174864971967 8.98488473249245  C 11.9961216132915 8.66771784833986  10.7371136290251 8.57256778309403  9.39784101916808 8.69943453675506  C 7.35223970411249 8.9078584891983  5.65750946663925 9.54898869073514  4.31365030674846 10.6228251413658  C 2.96979114685769 11.6966615919966  2.36207326738489 12.8950993185443  2.49049666833008 14.2181383210091  C 2.57305456893766 15.0880817746848  2.98125752194204 15.8583442076265  3.71510552734316 16.5289256198348  C 4.44895353274427 17.1995070320429  5.4052492147826 17.6933811802235  6.5839925734582 18.0105480643759  C 7.76273593213375 18.3277149485282  9.02174391640003 18.4228650137741  10.3610165262571 18.295998260113  C 12.4066178413127 18.08757430767  14.1013480787859 17.446444106133  15.4452072386767 16.3726076555025  Z M 21.0385050048434 11.2480969986952  C 21.3503904071389 11.7238473249239  21.5063331082866 12.2517036392634  21.5063331082866 12.8316659417139  C 21.5063331082866 13.4478758880674  21.3366307570376 14.0799441786284  20.9972260545396 14.7278708133973  C 20.6578213520415 15.3757974481658  20.157887398362 15.9965383500073  19.497424193501 16.5900935189213  C 18.83696098864 17.1836486878353  18.064127307952 17.7160359576628  17.1789231514368 18.1872553284036  C 16.2937189949217 18.6584746991446  15.2571586872927 19.0345440046398  14.0692422285496 19.3154632448892  C 12.8813257698065 19.5963824851386  11.6406639856753 19.7368421052632  10.3472568761558 19.7368421052632  C 9.05384976663632 19.7368421052632  7.79254850735313 19.5850550964188  6.56335309830629 19.2814810787299  C 5.3341576892594 18.9779070610412  4.23109240614082 18.5565282006668  3.25415724895058 18.0173444976077  C 2.27722209176036 17.4781607945484  1.49062876097105 16.7939865158765  0.894377256582629 15.9648216615921  C 0.298125752194238 15.1356568073074  0 14.2317311874729  0 13.2530448020879  C 0 12.2109250398724  0.31876522734612 11.1008409453386  0.956295682038331 9.92279251848629  C 1.5938261367306 8.744744091634  2.49966976839758 7.57575757575751  3.67382657703936 6.41583297085691  C 5.22408048844923 4.88437001594906  6.79038732497725 3.81506452080617  8.37274708662341 3.20791648542848  C 9.95510684826959 2.60076845005074  11.0856914315907 2.63248513846617  11.7645008365867 3.30306655067415  C 12.3607523409752 3.88302885312459  12.4524833416503 4.82999855009439  12.0396938386121 6.14397564158327  C 12.0030014383421 6.27084239524436  11.9984148883083 6.36146150500224  12.0259341885109 6.41583297085691  C 12.0534534887134 6.47020443671164  12.099318989051 6.50192112512684  12.1635306895236 6.5109830361028  C 12.2277423899962 6.52004494707836  12.2942473654857 6.51777946933447  12.363045615992 6.5041866028709  C 12.4318438664984 6.49059373640699  12.4937622919541 6.47473539219959  12.5488008923592 6.45661157024807  L 12.6313587929668 6.42942583732065  C 13.9064197023512 5.89477308974909  15.0347110106555 5.62744671596346  16.0162327178795 5.62744671596346  C 16.9977544251035 5.62744671596346  17.6994965802683 5.90383500072505  18.1214591833739 6.45661157024807  C 18.5342486864121 7.02751196172261  18.5342486864121 7.83402203856741  18.1214591833739 8.87614180078305  C 18.1031129832389 8.99394664346818  18.082473508087 9.08456575322606  18.0595407579182 9.14799913005652  C 18.0366080077495 9.21143250688715  18.0572474829013 9.26806945048571  18.1214591833739 9.31790996085243  C 18.1856708838466 9.36775047121938  18.2407094842516 9.40173263737847  18.2865749845892 9.41985645933016  C 18.3324404849268 9.43798028128168  18.4104118355006 9.4651660142091  18.5204890363108 9.50141365811231  C 19.0433557401591 9.66452805567639  19.5157703936361 9.87748296360752  19.9377329967417 10.1402783819053  C 20.3596955998473 10.4030738002029  20.7266196025479 10.7723466724663  21.0385050048434 11.2480969986952  Z M 19.0983943405642 3.45938451500655  C 19.6396072445475 3.62702986805857  20.1028487979569 3.92380745251558  20.4881190007926 4.34971726837756  C 20.8733892036282 4.77562708423949  21.1233561804679 5.26723575467582  21.2380199313118 5.82454327968679  C 21.3526836821558 6.38185080469765  21.3228711069364 6.91423807452526  21.1485822056536 7.42170508916917  C 21.0751974051134 7.63012904161241  20.9398941791176 7.78418152820069  20.7426725276661 7.88386254893436  C 20.5454508762145 7.98354356966797  20.3413493997123 8.00166739161949  20.1303680981595 7.93823401478903  C 19.9193867966067 7.86573872698267  19.763444095459 7.73207554008991  19.6625399947163 7.53724445411063  C 19.5616358939737 7.34241336813113  19.5432896938386 7.14078584891996  19.6075013943112 6.93236189647678  C 19.7909633956615 6.36146150500224  19.6808861948513 5.85852544584611  19.2772697918807 5.4235537190084  C 18.8736533889101 4.98858199217051  18.3828925352981 4.82999855009439  17.8049872310447 4.94780339277952  C 17.5848328294244 4.99311294765846  17.3784380779053 4.95686530375525  17.1858029764875 4.83906046106995  C 16.9931678750697 4.72125561838482  16.8785041242258 4.55361026533279  16.8418117239557 4.33612440191382  C 16.7959462236182 4.11863853849508  16.8326386238882 3.9170110192839  16.9518889247659 3.73124184428019  C 17.0711392256436 3.54547266927665  17.2408415768926 3.42993330433518  17.4609959785129 3.38462374945624  C 18.0113819825638 3.26681890677111  18.5571814365808 3.29173916195447  19.0983943405642 3.45938451500655  Z M 20.1166084480582 0.305839495432735  C 21.2265535562274 0.64566115702479  22.1805559632489 1.25507467014643  22.9786156691226 2.13408003479782  C 23.7766753749963 3.00402348847325  24.292662253794 4.0121610845294  24.5265763055156 5.15849282296642  C 24.7604903572372 6.30482456140345  24.6985719317815 7.39905031172992  24.3408210291484 8.44117007394516  C 24.2582631285408 8.68584167029138  24.1023204273931 8.86707988980714  23.8729929257052 8.98488473249245  C 23.6436654240173 9.10268957517758  23.405164822262 9.1208133971291  23.1574911204391 9.03925619834712  C 22.9098174186162 8.95769899956503  22.726355417266 8.80364651297668  22.6071051163883 8.57709873858198  C 22.4878548155106 8.35055096418728  22.4649220653418 8.11494127881684  22.5383068658819 7.87026968247062  C 22.7951536677723 7.12719298245605  22.8410191681099 6.3478686385385  22.6759033668947 5.5322966507178  C 22.5107875656794 4.71672466289704  22.1438635629788 4.00083369580972  21.5751313587929 3.38462374945624  C 21.0063991546071 2.75935189212703  20.3275897496111 2.3266456430332  19.5387031438049 2.08650500217499  C 18.7498165379986 1.84636436131655  17.9563433821587 1.80785123966945  17.158283676285 1.97096563723352  C 16.9014368743946 2.02533710308825  16.6629362726392 1.98229302595337  16.4427818710188 1.8418334058286  C 16.2226274693985 1.70137378570377  16.0850309683858 1.5042772219806  16.0299923679808 1.25054371465848  C 15.9749537675757 0.996810207336523  16.0185259928963 0.763465999709922  16.1607090439428 0.550511091779128  C 16.3028920949893 0.337556183847994  16.5024070214577 0.203892996955233  16.7592538233481 0.149521531100561  C 17.8875451316524 -0.0860881542699303  19.006663339889 -0.0339821661593191  20.1166084480582 0.305839495432735  Z " fill-rule="nonzero" fill="#096dd9" stroke="none" transform="matrix(1 0 0 1 111 844 )" />
  </g>
</svg>