<?xml version="1.0" encoding="utf-8"?>
<svg version="1.1" xmlns:xlink="http://www.w3.org/1999/xlink" width="25px" height="21px" xmlns="http://www.w3.org/2000/svg">
  <g transform="matrix(1 0 0 1 -111 -764 )">
    <path d="M 6.77490234375 5.70878297362111  C 6.97835286458334 5.50804356514789  7.080078125 5.23970823341318  7.080078125 4.90377697841723  C 7.080078125 4.56784572342127  6.97835286458334 4.2974620303757  6.77490234375 4.09262589928062  C 6.57145182291666 3.88778976818554  6.30289713541666 3.78537170263786  5.96923828125 3.78537170263786  C 5.61930338541666 3.78537170263786  5.31005859375 3.88983812949635  5.04150390625 4.09877098321334  C 4.77294921875 4.30770383693033  4.638671875 4.57603916866503  4.638671875 4.90377697841723  C 4.638671875 5.22332134292566  4.77294921875 5.48755995203845  5.04150390625 5.69649280575544  C 5.31005859375 5.90542565947243  5.61930338541666 6.00989208633092  5.96923828125 6.00989208633092  C 6.30289713541666 6.00989208633092  6.57145182291666 5.90952238209428  6.77490234375 5.70878297362111  Z M 15.838623046875 11.7616906474819  C 16.046142578125 11.5814348521182  16.14990234375 11.3725019984012  16.14990234375 11.134892086331  C 16.14990234375 10.9054756195043  16.046142578125 10.7006394884092  15.838623046875 10.5203836930455  C 15.631103515625 10.3401278976817  15.3645833333333 10.2499999999999  15.0390625 10.2499999999999  C 14.8193359375 10.2499999999999  14.617919921875 10.3421762589928  14.434814453125 10.5265287769784  C 14.251708984375 10.7108812949641  14.16015625 10.9136690647481  14.16015625 11.134892086331  C 14.16015625 11.3643085531574  14.251708984375 11.5711930455635  14.434814453125 11.7555455635492  C 14.617919921875 11.9398980815346  14.8193359375 12.0320743405275  15.0390625 12.0320743405275  C 15.3645833333333 12.0320743405275  15.631103515625 11.9419464428457  15.838623046875 11.7616906474819  Z M 12.969970703125 5.70878297362111  C 13.1693522135417 5.50804356514789  13.26904296875 5.23970823341318  13.26904296875 4.90377697841723  C 13.26904296875 4.56784572342127  13.1693522135417 4.2974620303757  12.969970703125 4.09262589928062  C 12.7705891927083 3.88778976818554  12.5040690104167 3.78537170263786  12.17041015625 3.78537170263786  C 11.8204752604167 3.78537170263786  11.51123046875 3.88983812949635  11.24267578125 4.09877098321334  C 10.97412109375 4.30770383693033  10.83984375 4.57603916866503  10.83984375 4.90377697841723  C 10.83984375 5.22332134292566  10.97412109375 5.48755995203845  11.24267578125 5.69649280575544  C 11.51123046875 5.90542565947243  11.8204752604167 6.00989208633092  12.17041015625 6.00989208633092  C 12.5040690104167 6.00989208633092  12.7705891927083 5.90952238209428  12.969970703125 5.70878297362111  Z M 20.703125 11.7616906474819  C 20.9147135416667 11.5814348521182  21.0205078125 11.3725019984012  21.0205078125 11.134892086331  C 21.0205078125 10.9054756195043  20.9147135416667 10.7006394884092  20.703125 10.5203836930455  C 20.4915364583333 10.3401278976817  20.22705078125 10.2499999999999  19.90966796875 10.2499999999999  C 19.68994140625 10.2499999999999  19.488525390625 10.3421762589928  19.305419921875 10.5265287769784  C 19.122314453125 10.7108812949641  19.03076171875 10.9136690647481  19.03076171875 11.134892086331  C 19.03076171875 11.3643085531574  19.122314453125 11.5711930455635  19.305419921875 11.7555455635492  C 19.488525390625 11.9398980815346  19.68994140625 12.0320743405275  19.90966796875 12.0320743405275  C 20.22705078125 12.0320743405275  20.4915364583333 11.9419464428457  20.703125 11.7616906474819  Z M 16.107177734375 3.05410671462823  C 16.9657389322917 4.00864308553156  17.5211588541667 5.0758393285372  17.7734375 6.2556954436451  C 17.5211588541667 6.22292166266976  17.236328125 6.20653477218224  16.9189453125 6.20653477218224  C 15.5436197916667 6.20653477218224  14.2781575520833 6.52198241406876  13.12255859375 7.1528776978418  C 11.9669596354167 7.78377298161462  11.0575358072917 8.63793964828136  10.394287109375 9.71537769784163  C 9.73103841145834 10.7928157474021  9.3994140625 11.9706235011989  9.3994140625 13.2488009592325  C 9.3994140625 13.8878896882494  9.49300130208334 14.5105915267785  9.68017578125 15.1169064748202  C 9.39534505208334 15.1414868105515  9.11865234375 15.1537769784172  8.85009765625 15.1537769784172  C 8.63850911458334 15.1537769784172  8.43505859375 15.1476318944844  8.23974609375 15.1353417266185  C 8.04443359375 15.1230515587529  7.82063802083334 15.0964228617105  7.568359375 15.0554556354916  C 7.31608072916666 15.0144884092725  7.135009765625 14.9858113509193  7.025146484375 14.9694244604315  C 6.915283203125 14.9530375699439  6.69352213541666 14.910021982414  6.35986328125 14.8403776978417  C 6.02620442708334 14.7707334132693  5.82275390625 14.7277178257394  5.74951171875 14.7113309352517  L 2.6611328125 16.2721822541965  L 3.5400390625 13.5929256594723  C 1.18001302083334 11.92965627498  0 9.92226219024775  0 7.57074340527578  C 0 6.18605115907275  0.396728515625 4.91197042366099  1.190185546875 3.74850119904067  C 1.983642578125 2.58503197442053  3.057861328125 1.66941446842526  4.412841796875 1.0016486810552  C 5.767822265625 0.333882893685143  7.24690755208334 0  8.85009765625 0  C 10.2823893229167 0  11.6353352864583 0.270383693045517  12.908935546875 0.811151079136607  C 14.1825358072917 1.35191846522787  15.2486165364583 2.09957034372508  16.107177734375 3.05410671462823  Z M 23.956298828125 9.91202038369295  C 24.652099609375 10.9075239808154  25 11.9870103916867  25 13.1504796163068  C 25 14.1091127098321  24.7212727864583 15.0247302158273  24.163818359375 15.8973321342925  C 23.6063639322917 16.7699340527577  22.8515625 17.5626498800958  21.8994140625 18.2754796163069  L 22.57080078125 20.4999999999999  L 20.1416015625 19.1603717026377  C 18.9208984375 19.4635291766585  18.0338541666667 19.6151079136689  17.48046875 19.6151079136689  C 16.1051432291667 19.6151079136689  14.8396809895833 19.3262889688249  13.68408203125 18.7486510791367  C 12.5284830729167 18.1710131894484  11.6190592447917 17.386490807354  10.955810546875 16.3950839328536  C 10.2925618489583 15.4036770583533  9.9609375 14.3221422861709  9.9609375 13.1504796163068  C 9.9609375 11.9788169464427  10.2925618489583 10.8972821742606  10.955810546875 9.90587529976017  C 11.6190592447917 8.91446842525983  12.5284830729167 8.12994604316543  13.68408203125 7.55230815347716  C 14.8396809895833 6.97467026378888  16.1051432291667 6.68585131894474  17.48046875 6.68585131894474  C 18.7906901041667 6.68585131894474  20.0236002604167 6.97467026378888  21.17919921875 7.55230815347716  C 22.3347981770833 8.12994604316543  23.260498046875 8.9165167865707  23.956298828125 9.91202038369295  Z " fill-rule="nonzero" fill="#096dd9" stroke="none" transform="matrix(1 0 0 1 111 764 )" />
  </g>
</svg>