<?xml version="1.0" encoding="utf-8"?>
<svg version="1.1" xmlns:xlink="http://www.w3.org/1999/xlink" width="15px" height="15px" xmlns="http://www.w3.org/2000/svg">
  <g transform="matrix(1 0 0 1 -54 -798 )">
    <path d="M 14.767955801105 13.5580110497238  L 8.69337016574586 7.48342541436464  L 14.767955801105 1.40883977900552  C 15.0745856353591 1.10220994475138  15.0745856353591 0.596685082872928  14.767955801105 0.290055248618784  L 14.7348066298343 0.256906077348066  C 14.4281767955801 -0.0497237569060776  13.9226519337017 -0.0497237569060776  13.6160220994475 0.256906077348066  L 7.5414364640884 6.33977900552486  L 1.46685082872928 0.256906077348066  C 1.16022099447514 -0.0497237569060775  0.654696132596685 -0.0497237569060775  0.348066298342541 0.256906077348066  L 0.314917127071823 0.290055248618785  C 0 0.596685082872928  0 1.10220994475138  0.314917127071823 1.40883977900553  L 6.38950276243094 7.48342541436464  L 0.314917127071823 13.5580110497238  C 0.00828729281767953 13.8646408839779  0.00828729281767953 14.3701657458564  0.314917127071823 14.6767955801105  L 0.348066298342541 14.7099447513812  C 0.654696132596685 15.0165745856354  1.16022099447514 15.0165745856354  1.46685082872928 14.7099447513812  L 7.5414364640884 8.6353591160221  L 13.6160220994475 14.7099447513812  C 13.9226519337017 15.0165745856354  14.4281767955801 15.0165745856354  14.7348066298343 14.7099447513812  L 14.767955801105 14.6767955801105  C 15.0745856353591 14.3701657458564  15.0745856353591 13.8646408839779  14.767955801105 13.5580110497238  Z " fill-rule="nonzero" fill="#aaaaaa" stroke="none" transform="matrix(1 0 0 1 54 798 )" />
  </g>
</svg>